<svg id="Capa_1" enable-background="new 0 0 510 510" height="512" viewBox="0 0 510 510" width="512" xmlns="http://www.w3.org/2000/svg"><path d="m425.84 170.84c0 77.46-115.16 266.14-156.38 331.2-3.36 5.3-8.91 7.96-14.46 7.96s-11.1-2.66-14.46-7.96c-41.22-65.06-156.38-253.74-156.38-331.2 0-94.35 76.49-170.84 170.84-170.84s170.84 76.49 170.84 170.84z" fill="#ff5b5b"/><path d="m425.84 170.84c0 77.46-115.16 266.14-156.38 331.2-3.36 5.3-8.91 7.96-14.46 7.96v-510c94.35 0 170.84 76.49 170.84 170.84z" fill="#f40000"/><path d="m284.25 211.42c-8.66 3.94-14.25 12.36-14.25 21.46v15.21c0 8.29-6.72 15-15 15s-15-6.71-15-15v-15.21c0-13.89 5.56-27.03 15-36.85 4.7-4.91 10.38-8.99 16.83-11.92 15.64-7.11 24.98-22.82 23.79-40.02-1.472-21.49-18.904-37.8-40.62-37.8-22.54.02-40.73 18.19-40.73 40.72 0 8.29-6.71 15-15 15-8.28 0-15-6.71-15-15 0-38.25 30.95-70.78 70.73-70.73 37.368 0 67.995 28.628 70.55 65.75 2.03 29.35-14.57 57.24-41.3 69.39z" fill="#d7ebed"/><path d="m284.25 211.42c-8.66 3.94-14.25 12.36-14.25 21.46v15.21c0 8.29-6.72 15-15 15v-67.06c4.7-4.91 10.38-8.99 16.83-11.92 15.64-7.11 24.98-22.82 23.79-40.02-1.472-21.49-18.904-37.8-40.62-37.8v-30.01c37.368 0 67.995 28.628 70.55 65.75 2.03 29.35-14.57 57.24-41.3 69.39z" fill="#b6dade"/><path d="m270 317.98v1.83c0 8.33-6.76 15-15 15-8.28 0-15-6.71-15-15v-1.83c0-8.28 6.72-15 15-15 8.27 0 15 6.71 15 15z" fill="#d7ebed"/><path d="m270 317.98v1.83c0 8.33-6.76 15-15 15v-31.83c8.27 0 15 6.71 15 15z" fill="#b6dade"/></svg>