<svg height="511pt" viewBox="0 -1 511.99887 511" width="511pt" xmlns="http://www.w3.org/2000/svg"><path d="m509.875 183.269531-54.8125-53.0625c-1.070312-1.039062-2.207031-1.453125-3.75-1.40625l-9.085938.078125-226.507812-128.378906-77.304688 2.253906-77.308593 87.011719-53.210938 112.097656c3.105469 9.1875 4.335938 15.132813 4.335938 15.132813v158.460937l235.796875 133.644531 252.363281-145.699218v-174.179688l2.359375 2.097656c2.195312 2.128907 5.542969 1.945313 7.667969-.25 2.125-2.195312 1.652343-5.675781-.542969-7.800781zm0 0" fill="#bf0025"/><path d="m451.515625 134.140625-77.304687 2.253906-77.308594 87.015625-48.875 103.394532v182.296874l126.183594-72.851562 126.179687-72.851562v-182.296876zm0 0" fill="#ea2642"/><path d="m432.910156 231.136719-117.398437 67.78125v171.222656l117.398437-67.78125zm0 0" fill="#bf0025"/><path d="m296.902344 223.410156-235.792969-133.644531-55.574219 117.074219 235.796875 133.644531zm0 0" fill="#ef5f26"/><path d="m61.109375 89.765625 77.304687-87.015625 235.796876 133.644531-77.308594 87.015625zm0 0" fill="#ff7e27"/><path d="m138.414062 2.75 77.304688-2.25 235.796875 133.640625-77.304687 2.253906zm0 0" fill="#ef5f26"/><path d="m152.015625 390.449219v-69.75l46.730469 26.976562v69.765625zm0 0" fill="#2c92bf"/><path d="m198.746094 376.304688v-20.085938l-21.476563 16.195312v20.085938zm0 0" fill="#83b2c6"/><path d="m145.570312 308.375v86.964844l59.625 34.425781v-86.964844zm6.445313 12.324219 18.804687 10.851562v69.757813l-18.804687-10.863282zm46.730469 96.742187-21.476563-12.40625v-69.757812l21.476563 12.398437zm0 0" fill="#e6e6e6"/><path d="m170.820312 361.402344v-20.101563l-18.804687 14.214844v20.097656zm0 0" fill="#83b2c6"/><path d="m53.898438 333.273438v-69.75l46.730468 26.980468v69.765625zm0 0" fill="#2c92bf"/><path d="m100.628906 319.132812v-20.085937l-21.476562 16.191406v20.085938zm0 0" fill="#83b2c6"/><path d="m47.449219 251.199219v86.96875l59.628906 34.425781v-86.96875zm6.449219 12.324219 18.804687 10.855468v69.757813l-18.804687-10.863281zm46.730468 96.742187-21.476562-12.40625v-69.757813l21.476562 12.398438zm0 0" fill="#e6e6e6"/><path d="m72.703125 304.226562v-20.101562l-18.804687 14.214844v20.101562zm0 0" fill="#83b2c6"/><g fill="#e6e6e6"><path d="m241.332031 346.015625c-.949219 0-1.886719-.242187-2.730469-.71875l-235.796874-133.644531c-2.65625-1.507813-3.589844-4.882813-2.085938-7.539063 1.507812-2.660156 4.878906-3.59375 7.542969-2.085937l230.621093 130.710937 53.023438-111.703125c.222656-.472656.511719-.910156.859375-1.300781l77.304687-87.015625c1.015626-1.136719 2.453126-1.808594 3.976563-1.855469l77.304687-2.25c1.546876-.046875 2.941407.515625 4.011719 1.554688l54.953125 53.265625c2.195313 2.125 2.25 5.628906.121094 7.824218-2.125 2.195313-5.628906 2.25-7.820312.121094l-53.277344-51.636718-72.582032 2.113281-75.199218 84.636719-55.230469 116.363281c-.660156 1.390625-1.867187 2.441406-3.332031 2.902343-.542969.175782-1.105469.257813-1.664063.257813zm0 0"/><path d="m315.511719 298.917969v171.222656l117.398437-67.777344v-171.226562zm104.699219 93.816406-37.75-34.964844 37.75-85.105469zm-71.597657 41.335937 27.640625-62.3125 31.078125 28.320313zm61.304688-172.726562-37.753907 85.105469-37.75-41.515625zm-81.707031 57.578125 37.75 41.515625-37.75 85.105469zm0 0"/></g></svg>