<svg height="512pt" viewBox="0 -122 512.00022 512" width="512pt" xmlns="http://www.w3.org/2000/svg"><path d="m25.199219 91.535156 24.574219 93.472656c7.644531 29.066407 33.917968 49.328126 63.976562 49.328126h229.402344c30.054687 0 56.332031-20.261719 63.972656-49.328126l24.574219-93.472656zm0 0" fill="#dd9f80"/><path d="m49.773438 185.007812c7.644531 29.066407 33.921874 49.328126 63.976562 49.328126h65.648438c-3.078126-4.144532-5.789063-8.417969-8.179688-12.714844-14.667969-26.382813-7.480469-59.554688 16.375-78.050782 20.402344-15.8125 32.058594-32.621093 32.058594-32.621093l-.523438-19.410157h-193.929687zm0 0" fill="#c68d6d"/><path d="m264.734375 43.78125c0 20.039062-16.246094 36.28125-36.285156 36.28125-20.035157 0-36.28125-16.242188-36.28125-36.28125s16.246093-36.28125 36.28125-36.28125c20.039062 0 36.285156 16.242188 36.285156 36.28125zm0 0" fill="#eaeaea"/><path d="m418.519531 110.949219h-380.136719c-17.058593 0-30.882812-13.828125-30.882812-30.882813 0-17.058594 13.824219-30.882812 30.882812-30.882812h380.136719c17.054688 0 30.882813 13.824218 30.882813 30.882812-.003906 17.054688-13.828125 30.882813-30.882813 30.882813zm0 0" fill="#eab9a4"/><path d="m99.742188 80.066406c0-17.058594 13.828124-30.882812 30.882812-30.882812h-92.242188c-17.058593 0-30.882812 13.824218-30.882812 30.882812 0 17.054688 13.824219 30.882813 30.882812 30.882813h92.242188c-17.054688 0-30.882812-13.828125-30.882812-30.882813zm0 0" fill="#dd9f80"/><path d="m416.410156 149.699219h-375.917968l9.28125 35.308593c.96875 3.671876 2.234374 7.207032 3.765624 10.578126h349.824219c1.53125-3.371094 2.796875-6.90625 3.765625-10.578126zm0 0" fill="#c68d6d"/><path d="m473.398438 230.003906c-7.28125 8.105469-19.871094 8.78125-27.976563 1.5l-195.679687-175.765625c-8.105469-7.28125-8.78125-19.871093-1.5-27.976562 7.28125-8.109375 19.875-8.78125 27.980468-1.5l195.675782 175.761719c8.105468 7.28125 8.78125 19.871093 1.5 27.980468zm0 0" fill="#ffdaaa"/><path d="m469.746094 168.0625c17.929687 16.105469 46.03125 67.609375 29.925781 85.539062-16.105469 17.929688-70.316406-4.503906-88.246094-20.605468-17.933593-16.105469-6.550781-32.148438 9.554688-50.078125 16.105469-17.929688 30.835937-30.960938 48.765625-14.855469zm0 0" fill="#ffc477"/><path d="m180.789062 149.699219h-140.296874l9.28125 35.308593c.96875 3.671876 2.234374 7.207032 3.765624 10.578126h110.175782c-.898438-16.703126 5.136718-33.433594 17.074218-45.886719zm0 0" fill="#b2785b"/><path d="m504.378906 207.222656c-7.410156-17.5-19.3125-35.480468-29.621094-44.738281-10.496093-9.429687-25.359374-18.289063-39.257812-3.234375l-11.203125-10.0625 8.847656-33.644531c13.929688-5.761719 23.753907-19.492188 23.753907-35.476563 0-21.164062-17.214844-38.382812-38.378907-38.382812h-113.902343l-23.382813-21.003906c-5.914063-5.308594-13.523437-7.554688-20.871094-6.851563-8.265625-8.820313-19.699219-13.828125-31.914062-13.828125-23.4375 0-42.628907 18.511719-43.726563 41.683594h-93.652344c-4.144531 0-7.5 3.355468-7.5 7.5 0 4.140625 3.355469 7.5 7.5 7.5h149.554688c1.175781 1.675781 51.007812 46.765625 51.007812 46.765625h-253.25c-12.894531 0-23.382812-10.492188-23.382812-23.382813 0-12.894531 10.488281-23.382812 23.382812-23.382812h20.0625c4.144532 0 7.5-3.359375 7.5-7.5 0-4.144532-3.355468-7.5-7.5-7.5h-20.0625c-21.164062 0-38.382812 17.21875-38.382812 38.382812 0 15.984375 9.828125 29.714844 23.753906 35.476563l18.765625 71.371093c8.503907 32.335938 37.792969 54.921876 71.230469 54.921876h229.402344c19.839844 0 38.496094-8.035157 52.082031-21.59375 1.191406 6.566406 4.910156 12.699218 11.179687 18.332031 10.304688 9.257812 29.621094 18.644531 47.648438 24.667969 30.097656 10.050781 46.976562.0625 51.1875-4.628907 6.476562-7.207031 11.582031-21.976562-.871094-51.390625zm-114.300781-88.777344h26.792969l-5.117188 19.472657zm28.441406-61.761718c12.890625 0 23.382813 10.488281 23.382813 23.382812 0 12.890625-10.492188 23.382813-23.382813 23.382813h-45.140625l-52.066406-46.765625zm-190.070312-41.683594c6.085937 0 11.882812 1.886719 16.699219 5.324219-7.324219 4.765625-9.621094 14.339843-9.4375 21.359375h-35.957032c1.078125-14.894532 13.53125-26.683594 28.695313-26.683594zm25.375 17.773438c4.382812-5.183594 12.335937-5.472657 17.386719-.933594l152.652343 137.117187c-2.734375 2.695313-14.066406 15.3125-16.457031 18.320313l-152.652344-137.117188c-2.429687-2.183594-7.511718-9.613281-.929687-17.386718zm80.949219 109.425781h-288.5l-6.246094-23.753907h268.304687zm8.378906 84.636719h-229.402344c-18.996094 0-36.304688-9.15625-47.128906-23.75h237.992187c4.144531 0 7.5-3.359376 7.5-7.5 0-4.144532-3.355469-7.5-7.5-7.5h-246.03125c-.585937-1.628907-8.367187-30.890626-8.367187-30.890626h301.257812l34.386719 30.890626h-49.128906c-4.144531 0-7.5 3.355468-7.5 7.5 0 4.140624 3.355469 7.5 7.5 7.5h53.550781c-10.914062 14.714843-28.355469 23.75-47.128906 23.75zm150.941406 21.753906c-4.824219 5.375-18.5 5.488281-35.691406.292968-17.871094-5.398437-34.640625-14.886718-41.964844-21.46875-11.011719-9.890624-8.835938-18.375 10.121094-39.484374 12.199218-13.578126 19.945312-19.617188 26.851562-19.691407 16.339844-.171875 29.878906 27.644531 37.15625 44.835938 7.003906 16.535156 8.351563 30.144531 3.527344 35.515625zm0 0"/></svg>