<svg id="Capa_1" enable-background="new 0 0 511.991 511.991" height="512" viewBox="0 0 511.991 511.991" width="512" xmlns="http://www.w3.org/2000/svg"><g><path d="m437.37 51.349h-61.583v-11.11c.777-7.035 6.443-12.701 13.479-13.478 1.959-.216 3.853-.063 5.623.399 2.421.632 4.987-.31 6.515-2.292 2.624-3.403 6.787-5.558 11.446-5.423 4.105.119 7.81 2.065 10.298 5.055.938 1.127 2.225 1.937 3.647 2.298 6.437 1.637 10.575 7.916 10.575 14.759z" fill="#ecf9f9"/><path d="m257.059 84.013c-.587-.587-1.539-.587-2.127 0l-179.316 179.316v190.717c5.111-4.094 11.655-6.474 18.759-6.269 8.451.244 16.08 4.252 21.202 10.407 1.932 2.321 4.581 3.987 7.508 4.732 13.253 3.37 22.866 15.854 21.773 30.387-.127 1.689-.403 3.34-.815 4.94h290.81c.83 0 1.504-.673 1.504-1.504v-233.429z" fill="#e28086"/><path d="m257.059 84.013c-.587-.587-1.539-.587-2.127 0l-8.937 8.937 130.723 130.722c12.574 12.574 19.639 29.629 19.639 47.412v117.064c0 49.759-40.337 90.096-90.096 90.096h-164.292c2.211 4.489 3.297 9.632 2.889 15.06-.127 1.689-.403 3.34-.815 4.94h290.81c.83 0 1.504-.673 1.504-1.504v-233.43z" fill="#dd636e"/><path d="m229.486 279.95h-122.31c-.828 0-1.5.672-1.5 1.5v169.048c3.829 1.814 7.211 4.454 9.901 7.687 1.932 2.321 4.581 3.987 7.508 4.732 13.253 3.37 22.866 15.854 21.773 30.387-.127 1.689-.403 3.34-.815 4.94h86.942v-216.794c.001-.828-.671-1.5-1.499-1.5z" fill="#d8aa8b"/><path d="m144.043 498.243h86.942v-20h-89.016c2.211 4.489 3.297 9.632 2.889 15.06-.127 1.689-.403 3.34-.815 4.94z" fill="#ce9875"/><path d="m257.059 84.013 212.085 212.084c.587.587 1.539.587 2.127 0l32.785-32.785c.587-.587.587-1.539 0-2.127l-246.997-246.996c-.587-.587-1.539-.587-2.127 0l-246.996 246.996c-.587.587-.587 1.539 0 2.127l32.785 32.785c.587.587 1.539.587 2.127 0l212.084-212.084c.587-.588 1.54-.588 2.127 0z" fill="#909ba5"/><path d="m504.055 261.186-246.996-246.997c-.587-.587-1.539-.587-2.127 0l-8.937 8.937 193.438 193.438c13.927 13.927 14.18 36.348.762 50.585l28.949 28.948c.587.587 1.539.587 2.126 0l32.785-32.785c.587-.587.587-1.539 0-2.126z" fill="#808b95"/><path d="m436.357 193.488v-116.522h-62.536v53.986z" fill="#f1cb86"/><path d="m407.357 76.966v87.522l29 29v-116.522z" fill="#ecbe6b"/><circle cx="214.094" cy="367.921" fill="#f6f9f9" r="16.891"/><path d="m405.589 374.097h-91.147c-.828 0-1.5-.672-1.5-1.5v-91.147c0-.828.672-1.5 1.5-1.5h91.147c.828 0 1.5.672 1.5 1.5v91.147c0 .828-.671 1.5-1.5 1.5z" fill="#daf1f4"/><path d="m405.589 279.95h-9.232v94.147h9.232c.828 0 1.5-.672 1.5-1.5v-91.147c0-.828-.672-1.5-1.5-1.5z" fill="#b9e4ef"/><path d="m437.911 51.349h-65.645c-.828 0-1.5.672-1.5 1.5v22.617c0 .828.672 1.5 1.5 1.5h65.645c.828 0 1.5-.672 1.5-1.5v-22.617c0-.828-.671-1.5-1.5-1.5z" fill="#909ba5"/><g fill="#ecf9f9"><path d="m144.043 498.243c.412-1.6.688-3.251.815-4.94 1.093-14.533-8.52-27.017-21.772-30.387-2.863-.728-5.481-2.254-7.351-4.541-5.122-6.263-12.821-10.352-21.36-10.599-9.598-.277-18.173 4.164-23.575 11.176-3.145 4.082-8.419 6.01-13.405 4.708-3.644-.952-7.544-1.267-11.576-.822-14.542 1.605-26.142 13.2-27.752 27.742-.238 2.151-.259 4.264-.083 6.321.065.765.726 1.342 1.493 1.342z"/><path d="m472.821 453.158c-3.749-.96-7.15-3.049-9.622-6.026-6.489-7.814-16.139-12.925-26.842-13.308v62.916c0 .83-.673 1.504-1.504 1.504h-96.092 159.565c.697 0 1.315-.476 1.467-1.156.374-1.679.631-3.399.763-5.15 1.394-18.533-10.848-34.455-27.735-38.78z"/><path d="m70.145 198.977 114.039-114.039c-.871-1.34-1.838-2.633-2.901-3.868-12.133-14.106-32.082-16.698-47.087-7.777-3.314 1.97-7.21 2.858-11.05 2.507-10.181-.933-20.686 2.335-28.535 9.745-8.911 8.41-12.642 20.153-11.196 31.354.843 6.522-2.176 13.043-7.849 16.368-4.149 2.431-7.956 5.667-11.194 9.71-11.632 14.521-11.634 35.581-.002 50.103 1.767 2.205 3.705 4.171 5.775 5.897z"/></g><path d="m443.857 190.38v-108.163c1.872-1.65 3.055-4.065 3.055-6.751v-22.617c0-2.162-.766-4.148-2.041-5.701v-5.589c0-10.481-6.599-19.497-16.067-21.987-8.842-10.452-24.539-9.912-32.867.128-13.521-2.993-26.16 6.653-27.604 19.716-.062.581-.045.426-.045 5.362-2.972 1.471-5.021 4.536-5.021 8.071v22.617c0 2.686 1.183 5.1 3.055 6.751v30.628l-103.959-103.959c-3.524-3.522-9.224-3.514-12.734 0l-64.886 64.886c-14.349-14.433-36.701-17.438-54.379-6.926-1.957 1.163-4.273 1.689-6.533 1.484-28.36-2.592-51.463 21.591-47.854 49.528.465 3.6-1.225 7.191-4.202 8.937-25.907 15.179-31.256 49.971-12.248 72.192l-56.895 56.895c-3.51 3.511-3.51 9.223 0 12.733l32.781 32.78c3.518 3.524 9.214 3.527 12.738.005l19.964-19.964v169.262c-1.161 1.143-2.25 2.369-3.256 3.675-1.338 1.734-3.578 2.554-5.57 2.029-26.133-6.821-51.071 14.347-48.779 41.138.394 4.6 4.332 8.202 8.966 8.202h478.851c4.187 0 7.883-2.956 8.787-7.025 5.2-23.328-9.048-46.837-32.433-52.826-2.263-.579-4.292-1.841-5.712-3.551-6.495-7.822-15.39-13.128-25.112-15.139v-145.785l19.979 19.979c3.518 3.524 9.214 3.527 12.738.005l32.788-32.789c3.506-3.511 3.503-9.222-.004-12.729zm-65.59-120.914v-10.617h53.645v10.617zm14.729-35.048c5.315 1.387 10.949-.563 14.348-4.969 2.478-3.212 7.323-3.415 10.038-.154 1.937 2.33 4.624 4.025 7.565 4.772 2.854.726 4.924 3.876 4.924 7.491v2.29h-46.583v-3.126c.695-4.442 5.143-7.5 9.708-6.304zm-11.674 50.048h47.535v90.914l-47.535-47.535zm-301.964 55.271c8.228-4.821 12.739-14.163 11.496-23.8-2.402-18.59 12.926-34.382 31.608-32.67 5.381.493 10.909-.761 15.566-3.528 11.732-6.976 26.577-4.965 36.106 4.64l-103.955 103.956c-12.058-15.123-8.399-38.299 9.179-48.598zm3.758 126.699 15.06-15.06v189.189c-4.884-.638-10.024-.274-15.06 1.245zm45.12-45.12v51.134h-15.061v-36.073zm30.069-30.069v13.077c0 4.143 3.357 7.5 7.5 7.5s7.5-3.357 7.5-7.5v-28.077l15.061-15.061v111.264h-15.061v-28.127c0-4.143-3.357-7.5-7.5-7.5s-7.5 3.357-7.5 7.5v28.127h-15.069v-66.134zm97.681 132.929c4.143 0 7.5-3.357 7.5-7.5v-215.63l15.06 15.06v374.638h-15.06v-134.068c0-4.143-3.357-7.5-7.5-7.5s-7.5 3.357-7.5 7.5v134.067h-10v-209.293c0-3.551-2.067-6.627-5.061-8.091v-157.233l15.061-15.061v215.61c0 4.144 3.357 7.501 7.5 7.501zm142.809-87.821v36.095h-15.06v-51.155zm.794 51.095v32.073h-32.073v-32.073zm-32.073 79.147v-32.073h32.073v32.073zm-15-79.147v32.073h-32.073v-32.073zm-32.073 79.147v-32.073h32.073v32.073zm48.293 15v109.146h-15.061v-109.146zm15 0h15.06v109.146h-15.06zm-15-109.147h-15.061v-81.215l15.061 15.061zm-30.061 0h-15.069v-111.284l15.069 15.069zm-30.069 2.156c-1.935 1.652-3.163 4.107-3.163 6.845v91.146c0 2.738 1.229 5.193 3.163 6.845v32.026c0 4.143 3.357 7.5 7.5 7.5s7.5-3.357 7.5-7.5v-29.871h15.069v109.146h-15.069v-49.275c0-4.143-3.357-7.5-7.5-7.5s-7.5 3.357-7.5 7.5v49.275h-15.061v-359.638l15.061 15.061zm-90.181-2.156h-15.06v-126.264l15.06-15.06zm-162.926 198.466c7.866 2.062 16.202-.844 21.242-7.386.989-1.283 2.099-2.431 3.307-3.434.178-.13.349-.268.515-.413 6.196-4.823 14.629-5.773 21.735-2.488.113.057.228.111.344.163 2.773 1.343 5.269 3.298 7.288 5.767 2.828 3.457 6.739 5.898 11.308 7.06 9.494 2.415 16.05 10.881 16.201 20.559h-111.836c1.927-13.79 15.645-23.539 29.896-19.828zm96.941 19.827c-.145-16.499-11.305-30.976-27.507-35.096-1.417-.36-2.622-1.078-3.393-2.02-2.419-2.958-5.247-5.481-8.365-7.513v-158.664h110.311v57.96c-15.984-6.694-33.783 5.11-33.783 22.51s17.798 29.204 33.783 22.511v100.313h-71.046zm71.046-122.823c0 5.179-4.213 9.392-9.392 9.392s-9.392-4.213-9.392-9.392c0-5.178 4.213-9.391 9.392-9.391s9.392 4.213 9.392 9.391zm233.943 84.004c3.426 4.124 8.23 7.142 13.531 8.499 13.693 3.507 22.925 16.197 22.157 30.32h-49.261v-48.05c5.224 1.693 9.954 4.871 13.573 9.231zm-28.572 38.819h-15.062v-114.451c.51-1.128.794-2.379.794-3.695v-91.147c0-1.316-.284-2.567-.794-3.695v-26.4l15.062 15.062zm41.351-204.189c-298.676-298.676-146.12-146.12-207.845-207.845-3.524-3.522-9.224-3.514-12.734 0-173.476 173.477-146.418 146.25-149.398 149.398-40.014 40.014 37.938-37.938-58.446 58.447l-24.305-24.305c69.362-69.362 165.778-165.778 238.516-238.516 20.434 20.434 203.478 203.478 238.517 238.517z"/></g></svg>