<svg height="512pt" viewBox="0 0 512.02252 512" width="512pt" xmlns="http://www.w3.org/2000/svg"><path d="m503.464844 17.078125v76.800781c0 23.5625-19.101563 42.664063-42.664063 42.664063h-11.007812l-5.035157-1.109375c19.386719-4.417969 33.132813-21.671875 33.109376-41.554688v-76.800781c-.015626-3.613281-2.304688-6.828125-5.71875-8.019531.960937-.34375 1.96875-.515625 2.988281-.515625h19.796875c4.710937 0 8.53125 3.820312 8.53125 8.535156zm0 0" fill="#bfa885"/><path d="m483.414062 17.078125v76.800781c.023438 19.882813-13.722656 37.136719-33.109374 41.554688l-35.15625-7.421875c-2.734376-1.707031-5.292969 0-8.535157 0l-48.214843-17.066407c1.265624-1.921874 2.921874-3.550781 4.867187-4.777343l26.621094-16.128907c5.109375-3.085937 8.21875-8.625 8.191406-14.59375v-58.367187c.015625-4.023437 2.816406-7.496094 6.742187-8.363281h.085938c.5625-.101563 1.132812-.160156 1.707031-.171875h22.1875c3.109375-.023438 5.984375 1.644531 7.507813 4.355469l6.484375 13.054687 6.058593 12.371094c1.597657 2.871093 4.699219 4.566406 7.976563 4.367187 3.277344-.199218 6.148437-2.261718 7.386719-5.304687l8.53125-23.464844c.902344-2.242187 2.695312-4.003906 4.949218-4.863281 3.414063 1.191406 5.703126 4.40625 5.71875 8.019531zm0 0" fill="#ffecb3"/><g fill="#4e342e"><path d="m184.0625 324.277344c-7.449219-.042969-14.046875 4.816406-16.210938 11.949218-4.183593 14.078126-13.996093 36.007813-34.390624 39.335938-3.402344.53125-6.125 3.113281-6.828126 6.484375-3.15625 14.082031-10.921874 48.898437-14.25 63.574219-.855468 3.886718-4.296874 6.652344-8.277343 6.65625h-18.773438c-4.710937 0-8.53125-3.820313-8.53125-8.53125v-72.621094c12.714844-7.851562 5.203125-35.753906 8.53125-46.847656 2.132813-7.167969 18.175781-25.597656 25.601563-25.597656l51.027344 17.832031zm0 0"/><path d="m161.960938 316.511719c-5.367188 1.613281-9.566407 5.8125-11.175782 11.179687-4.183594 14.078125-13.996094 36.011719-34.390625 39.339844-3.402343.527344-6.125 3.109375-6.828125 6.484375-3.15625 14.078125-10.921875 48.894531-14.25 63.574219-.855468 3.882812-4.296875 6.652344-8.277344 6.65625h-10.238281v-72.621094c12.714844-7.851562 5.203125-35.753906 8.53125-46.847656 2.132813-7.167969 18.175781-25.597656 25.601563-25.597656zm0 0"/><path d="m353.707031 264.289062-19.199219 180.734376c-.59375 4.164062-4.160156 7.253906-8.363281 7.253906h-19.882812c-.175781.015625-.351563-.015625-.511719-.085938-3.875-.199218-7.113281-3.015625-7.851562-6.824218l-15.785157-121.089844s1.875-21.84375 9.554688-30.546875c1.6875-2.171875 4.25-3.484375 7-3.585938 6.238281 1.027344 12.355469 2.683594 18.261719 4.949219 4.03125 1.125 8.1875 1.753906 12.371093 1.878906 10.921875-.171875 20.90625-7 24.40625-32.683594zm0 0"/></g><path d="m332.800781 264.289062-3.5 32.683594-15.699219 148.050782c-.363281 4.007812-3.675781 7.101562-7.699218 7.191406-4.023438.085937-7.46875-2.863282-8.003906-6.847656l-15.785157-121.089844s1.875-21.84375 9.554688-30.546875c7.96875 3.539062 16.957031 4.023437 25.261719 1.363281 7.25-3.328125 13.308593-12.03125 15.871093-30.804688zm0 0" fill="#795548"/><path d="m501.675781 187.746094-15.277343 29.351562c-1.800782 3.628906-5.882813 5.507813-9.8125 4.523438l-24.40625-7.933594c-4.3125-1.082031-8.730469 1.332031-10.152344 5.546875l-10.496094 31.058594c-1 2.90625-3.480469 5.050781-6.5 5.617187-3.019531.5625-6.113281-.539062-8.09375-2.886718l-3.242188-2.472657c-1.789062-2.09375-4.476562-3.191406-7.21875-2.957031-2.742187.238281-5.199218 1.785156-6.605468 4.152344l-8.960938 17.066406c-1.421875 2.46875-3.984375 4.066406-6.828125 4.257812-2.847656.1875-5.597656-1.058593-7.335937-3.320312l-7.933594-10.667969c-2.136719-2.535156-5.542969-3.605469-8.746094-2.746093-3.199218.859374-5.613281 3.496093-6.1875 6.757812-.085937.425781-.085937.855469-.171875 1.195312-7.253906 52.566407-38.570312 59.988282-52.054687 59.988282h-19.539063l-15.957031 120.746094c-.660156 4.160156-4.238281 7.230468-8.449219 7.253906h-19.796875c-4.082031-.007813-7.589844-2.902344-8.363281-6.910156l-3.925781-19.542969c1.175781.554687 2.457031.84375 3.753906.855469h9.558594c4.179687 0-13.484375-157.953126-12.800782-162.136719l42.667969 8.535156h19.539063c13.484375 0 32.941406 2.558594 40.195312-50.003906.082032-.34375.082032-.769531.167969-1.195313 1.195313-7.167968 26.964844-22.699218 31.574219-17.066406l7.9375 10.664062c1.941406 2.117188 4.808594 3.132813 7.648437 2.703126 2.839844-.425782 5.285157-2.238282 6.515625-4.835938l8.960938-17.066406c2.984375-5.035156 10.066406 4.011718 13.824218 8.535156l3.242188 2.472656c4.265625 5.121094 11.859375-4.777344 13.992188-11.007812v-17.066406c1.425781-4.210938 5.84375-6.625 10.15625-5.546876l35.5 5.300782c3.925781.984375 8.007812-.898438 9.8125-4.523438l14.507812-10.761718 3.15625 2.050781c7.414062 4.65625 10.074219 14.1875 6.144531 22.015625zm0 0" fill="#4e342e"/><path d="m492.375 163.679688-14.507812 27.820312c-1.804688 3.625-5.886719 5.507812-9.8125 4.523438l-24.40625-7.9375c-4.3125-1.078126-8.730469 1.335937-10.15625 5.546874l-10.496094 31.0625c-.996094 2.902344-3.480469 5.046876-6.5 5.613282-3.019532.566406-6.109375-.535156-8.089844-2.882813l-3.242188-2.476562c-1.789062-2.089844-4.476562-3.191407-7.21875-2.953125-2.742187.238281-5.203124 1.78125-6.605468 4.148437l-8.960938 17.066407c-1.421875 2.472656-3.984375 4.070312-6.832031 4.257812-2.84375.1875-5.597656-1.054688-7.332031-3.320312l-7.9375-10.664063c-2.132813-2.535156-5.542969-3.609375-8.742188-2.75-3.203125.859375-5.617187 3.496094-6.191406 6.757813-.085938.429687-.085938.855468-.171875 1.195312-7.25 52.566406-38.570313 59.992188-52.050781 59.992188h-28.585938l-17.070312 153.597656c-.679688 4.183594-12.882813 0-17.066406 0l-1.023438-25.597656c-1.296875-.011719-2.578125-.300782-3.753906-.855469l-17.578125-87.808594c-1.691407-7.917969-8.628907-13.617187-16.726563-13.738281h-75.519531c-7.453125-.042969-14.046875 4.816406-16.210937 11.949218-3.328126 13.917969-11.378907 26.253907-22.785157 34.898438-3.507812 2.289062-7.464843 3.804688-11.605469 4.4375-3.40625.53125-6.125 3.113281-6.828124 6.484375-3.15625 14.082031-10.921876 48.898437-14.25 63.574219-.855469 3.886718-4.296876 6.652344-8.277344 6.65625h-18.773438c-4.710937 0-8.53125-3.820313-8.53125-8.53125v-108.117188c-.027344-6.417968 3.574219-12.296875 9.300782-15.191406 10.152343-5.035156 24.832031-14.933594 24.832031-30.292969 0-22.699219 16.042969-57.515625 16.980469-59.648437-6.234376 1.238281-12.613282 1.582031-18.945313 1.023437-9.898437-1.363281-17.832031-7.082031-7.335937-25.429687l.765624-1.277344c25.601563-42.667969 70.402344-17.066406 93.867188-17.066406h85.332031c11.574219-19.136719 25.992188-36.398438 42.753907-51.203125l42.582031-17.066407c9.042969 0 34.132812 9.046876 34.132812 0 0-3.328124 15.957031-5.800781 14.078125-8.53125h57.773438c3.230468.007813 6.394531.925782 9.128906 2.644532zm0 0" fill="#795548"/><path d="m225.621094 425.824219c-2.390625-1.195313-4.09375-3.433594-4.609375-6.058594l-18.257813-90.964844c2.734375 2.402344 4.59375 5.644531 5.289063 9.214844zm0 0" fill="#4e342e"/><path d="m349.867188 120.160156c.019531 4.351563-1.703126 8.53125-4.777344 11.605469-3.078125 3.078125-7.257813 4.796875-11.605469 4.777344h-32.515625c1.257812-2.425781 1.933594-5.113281 1.964844-7.847657-.007813-5.714843-2.980469-11.011718-7.851563-13.996093l-34.816406-16.128907c-5.105469-3.085937-8.214844-8.625-8.191406-14.589843l16.726562-41.300781c0-4.695313 4.691407-17.066407 0-17.066407l-1.878906-8.535156 2.046875-4.179687c1.523438-2.710938 4.402344-4.378907 7.511719-4.355469h22.1875c4.710937 0 8.53125 3.820312 8.53125 8.535156v58.367187c-.023438 5.96875 3.085937 11.507813 8.191406 14.59375l26.625 16.128907c4.871094 2.980469 7.84375 8.28125 7.851563 13.992187zm0 0" fill="#bfa885"/><path d="m324.265625 128.695312c-.03125 2.734376-.703125 5.421876-1.960937 7.847657h-83.371094c-23.5625 0-42.667969-19.101563-42.667969-42.664063v-76.800781c0-4.714844 3.820313-8.535156 8.535156-8.535156h19.796875c3.496094 0 6.640625 2.128906 7.9375 5.378906l6.140625 16.980469 2.390625 6.484375c1.238282 3.042969 4.109375 5.105469 7.386719 5.304687 3.273437.199219 6.375-1.496094 7.972656-4.367187l10.496094-21.246094h6.144531c4.714844 0 8.535156 3.820313 8.535156 8.535156v58.367188c-.027343 5.964843 3.082032 11.503906 8.191407 14.589843l26.621093 16.128907c4.871094 2.984375 7.84375 8.28125 7.851563 13.996093zm0 0" fill="#ffecb3"/><path d="m422.621094 162.683594c0 4.710937-3.820313 8.53125-8.53125 8.53125-4.714844 0-8.535156-3.820313-8.535156-8.53125 0-4.714844 3.820312-8.535156 8.535156-8.535156 4.710937 0 8.53125 3.820312 8.53125 8.535156zm0 0"/><path d="m443.734375 494.945312c-28.277344 0-51.199219-22.921874-51.199219-51.199218s22.921875-51.203125 51.199219-51.203125 51.199219 22.925781 51.199219 51.203125c-.027344 28.265625-22.933594 51.171875-51.199219 51.199218zm0-85.332031c-18.851563 0-34.132813 15.28125-34.132813 34.132813 0 18.851562 15.28125 34.132812 34.132813 34.132812s34.132813-15.28125 34.132813-34.132812c0-18.851563-15.28125-34.132813-34.132813-34.132813zm0 0"/><path d="m503.464844 452.277344h-25.597656c-4.714844 0-8.535157-3.820313-8.535157-8.53125 0-4.714844 3.820313-8.535156 8.535157-8.535156h25.597656c4.714844 0 8.535156 3.820312 8.535156 8.535156 0 4.710937-3.820312 8.53125-8.535156 8.53125zm0 0"/><path d="m409.601562 452.277344h-25.601562c-4.710938 0-8.535156-3.820313-8.535156-8.53125 0-4.714844 3.824218-8.535156 8.535156-8.535156h25.601562c4.710938 0 8.53125 3.820312 8.53125 8.535156 0 4.710937-3.820312 8.53125-8.53125 8.53125zm0 0"/><path d="m443.734375 512.011719c-4.714844 0-8.535156-3.820313-8.535156-8.535157v-25.597656c0-4.714844 3.820312-8.535156 8.535156-8.535156 4.710937 0 8.53125 3.820312 8.53125 8.535156v25.597656c0 4.714844-3.820313 8.535157-8.53125 8.535157zm0 0"/><path d="m443.734375 418.144531c-4.714844 0-8.535156-3.820312-8.535156-8.53125v-25.601562c0-4.714844 3.820312-8.535157 8.535156-8.535157 4.710937 0 8.53125 3.820313 8.53125 8.535157v25.601562c0 4.710938-3.820313 8.53125-8.53125 8.53125zm0 0"/><path d="m452.265625 443.746094c0 4.710937-3.820313 8.53125-8.53125 8.53125-4.714844 0-8.535156-3.820313-8.535156-8.53125 0-4.714844 3.820312-8.535156 8.535156-8.535156 4.710937 0 8.53125 3.820312 8.53125 8.535156zm0 0"/><path d="m257.707031 460.8125h-19.816406c-8.132813-.019531-15.132813-5.757812-16.75-13.730469l-21.460937-107.402343c-.8125-3.976563-4.3125-6.832032-8.371094-6.824219h-75.46875c-3.695313-.058594-6.984375 2.335937-8.0625 5.871093-7.835938 26.09375-22.445313 42.179688-41.21875 45.226563l-14.09375 63.527344c-1.710938 7.804687-8.636719 13.359375-16.625 13.332031h-18.773438c-9.414062-.023438-17.0429685-7.652344-17.066406-17.066406v-108.128906c-.00390625-9.675782 5.445312-18.527344 14.089844-22.875 7.484375-3.6875 20.042968-11.503907 20.042968-22.597657 1.246094-17.128906 5.332032-33.933593 12.09375-49.722656-8.640624.777344-17.148437-2.542969-22.972656-8.96875-5.460937-7.5625-4.265625-17.996094 3.566406-31.035156 22.441407-37.421875 58.554688-29.5 82.433594-24.261719 6.136719 1.601562 12.414063 2.625 18.746094 3.054688h80.539062c11.589844-18.316407 25.75-34.875 42.042969-49.167969 1.546875-1.316407 3.507813-2.035157 5.539063-2.03125h77.371094c4.328124-.003907 7.835937-3.511719 7.839843-7.84375-.046875-1.578125-.566406-3.109375-1.492187-4.394531-1.792969-2.609376-1.992188-6-.515625-8.800782 1.472656-2.804687 4.378906-4.558594 7.546875-4.5625h57.753906c4.875 0 9.648438 1.390625 13.753906 4.011719l81.757813 52.054687c11.101562 7.023438 15.0625 21.324219 9.160156 33.058594l-15.363281 29.488282c-3.648438 7.089843-11.6875 10.746093-19.429688 8.839843l-24.992187-8.140625-9.96875 31.277344c-1.914063 5.828125-6.847657 10.160156-12.875 11.304688-5.675781 1.066406-11.5-.800782-15.496094-4.964844l-2.648437-2.074219c-.460938-.355469-.886719-.761719-1.261719-1.210937l-8.753907 16.726562c-2.789062 5.066406-7.957031 8.375-13.726562 8.789062-5.769531.417969-11.359375-2.117187-14.84375-6.734374l-7.679688-10.238282c-8.535156 64.851563-52.003906 68.1875-60.636718 68.1875h-12.050782l-14.960937 113.382813c-1.203125 8.40625-8.410156 14.648437-16.902344 14.644531zm-141.867187-145.066406h75.453125c12.191406.027344 22.683593 8.628906 25.105469 20.582031l21.476562 107.417969h19.832031l15.914063-120.585938c.5625-4.246094 4.183594-7.417968 8.464844-7.414062h19.542968c8.632813 0 37.339844-3.875 43.765625-53.761719l.042969-.316406c1.125-6.5625 5.96875-11.875 12.402344-13.601563 6.433594-1.722656 13.28125.453125 17.542968 5.574219l8.183594 10.914063 8.777344-16.804688c2.621094-4.746094 7.339844-7.957031 12.714844-8.65625 5.375-.695312 10.757812 1.210938 14.5 5.132812l2.644531 2.066407c.460937.359375.882813.765625 1.261719 1.210937l10.496094-31.078125c2.871093-8.40625 11.6875-13.222656 20.3125-11.09375l25 8.140625 14.804687-29.695312c1.914063-3.894532.574219-8.605469-3.105469-10.90625l-81.765625-52.054688c-1.367187-.871094-2.957031-1.335937-4.582031-1.339844h-46.226562v.691407c-.015626 13.75-11.160157 24.890625-24.90625 24.910156h-74.179688c-15.023438 13.734375-28.015625 29.535156-38.582031 46.933594-1.523438 2.640625-4.34375 4.269531-7.398438 4.265625h-85.332031c-7.566406-.371094-15.074219-1.511719-22.410156-3.414063-28.117188-6.167969-49.160156-8.609375-64.144532 16.375-5.546874 9.242188-4.375 12.230469-4.359374 12.246094 6.667968 2.515625 13.980468 2.738281 20.789062.632813 3.171875-.707032 6.472656.453124 8.507812 2.988281 2.035157 2.539062 2.453126 6.011719 1.074219 8.957031-.164062.324219-16.257812 34.84375-16.257812 56.082031 0 15.042969-10.496094 28.5-29.558594 37.90625-2.828125 1.457031-4.597656 4.386719-4.574219 7.566407v108.128906h18.773438l14.257812-63.59375c1.472656-6.75 6.914063-11.921875 13.730469-13.046875 16.113281-2.625 24.203125-22.007813 27.597656-33.320313 3.21875-10.777344 13.167969-18.128906 24.414063-18.039062zm0 0"/><path d="m326.101562 460.8125h-19.804687c-8.140625-.015625-15.140625-5.753906-16.753906-13.730469l-15.921875-121.703125c-.449219-3.050781.78125-6.105468 3.21875-7.992187s5.707031-2.3125 8.546875-1.113281c2.839843 1.203124 4.808593 3.839843 5.15625 6.902343l15.804687 121.125 19.753906-.554687 19.113282-180.351563c.238281-3.101562 2.144531-5.824219 4.972656-7.113281 2.828125-1.285156 6.132812-.9375 8.625.917969 2.496094 1.851562 3.785156 4.914062 3.367188 7.992187l-19.140626 180.761719c-1.109374 8.507813-8.359374 14.867187-16.9375 14.859375zm0 0"/><path d="m104.105469 460.8125h-18.773438c-9.414062-.023438-17.042969-7.652344-17.066406-17.066406v-72.601563c0-4.714843 3.820313-8.535156 8.535156-8.535156 4.710938 0 8.53125 3.820313 8.53125 8.535156v72.601563h18.773438l14.261719-63.59375c1.476562-6.761719 6.9375-11.9375 13.769531-13.046875 16.113281-2.625 24.203125-22.007813 27.597656-33.320313 3.214844-10.761718 13.140625-18.113281 24.371094-18.039062 4.714843 0 8.535156 3.820312 8.535156 8.53125 0 4.714844-3.820313 8.535156-8.535156 8.535156-3.695313-.058594-6.984375 2.335938-8.0625 5.871094-7.832031 26.136718-22.441407 42.222656-41.214844 45.269531l-14.105469 63.527344c-1.710937 7.804687-8.628906 13.355469-16.617187 13.332031zm0 0"/><path d="m333.492188 145.078125h-94.558594c-28.265625-.027344-51.171875-22.933594-51.199219-51.199219v-76.800781c0-9.425781 7.640625-17.0664062 17.066406-17.0664062h19.820313c6.988281-.0234376 13.277344 4.2382812 15.847656 10.7343752l8.601562 23.6875 12.289063-25.316406c2.984375-5.582032 8.789063-9.0781255 15.121094-9.1054692h22.1875c9.425781 0 17.066406 7.6406252 17.066406 17.0664062v58.402344c.011719 2.972656 1.5625 5.726562 4.09375 7.277343l26.625 16.105469c9.558594 5.800781 14.078125 17.261719 11.0625 28.027344-3.019531 10.765625-12.84375 18.203125-24.023437 18.1875zm-108.972657-128.257813-19.71875.257813v76.800781c0 18.851563 15.28125 34.132813 34.132813 34.132813h94.558594c3.515624-.007813 6.597656-2.355469 7.542968-5.742188.945313-3.386719-.476562-6.988281-3.480468-8.816406l-26.574219-16.101563c-7.621094-4.660156-12.285157-12.9375-12.3125-21.871093v-58.402344h-22.1875l-12.398438 25.0625c-3.167969 5.933594-9.5 9.476563-16.214843 9.070313-6.574219-.394532-12.324219-4.566407-14.746094-10.691407zm0 0"/><path d="m460.800781 145.078125h-11.015625c-1.625 0-3.214844-.464844-4.585937-1.339844l-35.992188-22.929687c-1.371093-.871094-2.957031-1.332032-4.582031-1.332032h-51.761719c-3.171875.003907-6.082031-1.753906-7.554687-4.558593-1.476563-2.808594-1.277344-6.199219.523437-8.8125 1.953125-2.914063 4.503907-5.382813 7.480469-7.234375l26.589844-16.085938c2.542968-1.558594 4.09375-4.324218 4.097656-7.304687v-58.402344c0-9.425781 7.640625-17.0664062 17.066406-17.0664062h22.1875c6.171875 0 11.859375 3.3320312 14.882813 8.7109372l12.796875 25.855469 8.21875-23.585937c2.527344-6.617188 8.875-10.9843755 15.957031-10.9804692h19.824219c9.425781 0 17.066406 7.6406252 17.066406 17.0664062v76.800781c-.027344 28.265625-22.933594 51.171875-51.199219 51.199219zm-8.535156-17.066406h8.535156c18.851563 0 34.132813-15.28125 34.132813-34.132813v-76.800781h-19.824219l-8.40625 23.183594c-2.351563 6.199219-8.082031 10.476562-14.695313 10.964843-6.613281.488282-12.910156-2.898437-16.152343-8.683593l-12.796875-25.867188-21.992188.402344v58.402344c-.03125 8.933593-4.691406 17.210937-12.3125 21.871093l-8.355468 5.058594h24.226562c4.875 0 9.648438 1.390625 13.753906 4.011719zm0 0"/></svg>