<?xml version="1.0" encoding="iso-8859-1"?>
<!-- Generator: Adobe Illustrator 19.0.0, SVG Export Plug-In . SVG Version: 6.00 Build 0)  -->
<svg version="1.1" id="Capa_1" xmlns="http://www.w3.org/2000/svg" xmlns:xlink="http://www.w3.org/1999/xlink" x="0px" y="0px"
	 viewBox="0 0 512 512" style="enable-background:new 0 0 512 512;" xml:space="preserve">
<path style="fill:#FBC926;" d="M216,176v99.504h0.008c3.072-0.536,6.16-1.008,9.272-1.416c0.456-0.064,0.92-0.112,1.376-0.176
	c2.76-0.352,5.52-0.664,8.312-0.92c1.288-0.12,2.592-0.2,3.888-0.296c2.104-0.152,4.2-0.328,6.32-0.424
	C248.76,272.104,252.368,272,256,272c3.632,0,7.24,0.104,10.832,0.272c2.12,0.096,4.216,0.272,6.32,0.424
	c1.296,0.096,2.6,0.176,3.888,0.296c2.784,0.248,5.552,0.568,8.304,0.92c0.456,0.056,0.92,0.112,1.376,0.176
	c3.112,0.408,6.2,0.888,9.272,1.416H296V176h32v-16v-40c0-17.672-14.328-32-32-32h-40h-40c-17.672,0-32,14.328-32,32v40v16H216z"/>
<path style="fill:#1881D1;" d="M368,464c-8.84,0-16-7.16-16-16s7.16-16,16-16h16c8.84,0,16-7.16,16-16s-7.16-16-16-16h-80
	c-8.84,0-16-7.16-16-16s7.16-16,16-16h16c8.84,0,16-7.16,16-16s-7.16-16-16-16h-40c-8.84,0-16-7.16-16-16s7.16-16,16-16h92.616
	L360,296.632c-19.872-9.984-41.376-17.184-64.008-21.12c-3.072-0.536-6.16-1.008-9.272-1.416c-0.456-0.064-0.912-0.112-1.376-0.176
	c-2.76-0.352-5.52-0.664-8.304-0.92c-1.288-0.12-2.592-0.2-3.888-0.296c-2.104-0.152-4.2-0.328-6.32-0.424
	c-3.592-0.176-7.2-0.28-10.832-0.28s-7.24,0.104-10.832,0.272c-2.12,0.096-4.216,0.272-6.32,0.424
	c-1.296,0.096-2.592,0.176-3.888,0.296c-2.784,0.248-5.552,0.568-8.312,0.92c-0.456,0.056-0.92,0.112-1.376,0.176
	c-3.112,0.408-6.2,0.888-9.272,1.416c-22.632,3.936-44.136,11.136-64.008,21.12l-22.448,13.112
	c-15.096,9.848-29.072,21.256-41.464,34.256l72.376-0.016c8.576,0,15.536,6.952,15.536,15.536v0.4c0,8.92-7.152,16.088-15.992,16.08
	c-5.16,0-10.872,0-16.024,0C135.144,376,128,383.16,128,392s7.16,16,16,16h80c8.832,0,16,7.16,16,16s-7.12,16-15.96,16
	c-30.424,0-85.408,0-128.088,0C87.12,440,80,447.16,80,456s7.16,16,16,16h24c8.84,0,16,7.16,16,16s-7.16,16-16,16h368
	c0-13.648-1.248-27-3.504-40H368z M296,472h-16c-8.84,0-16-7.16-16-16s7.16-16,16-16h16c8.84,0,16,7.16,16,16S304.84,472,296,472z"
	/>
<g>
	<path style="fill:#03DDD7;" d="M280,304c-8.84,0-16,7.16-16,16s7.16,16,16,16h40c8.84,0,16,7.16,16,16s-7.16,16-16,16h-16
		c-8.84,0-16,7.16-16,16s7.16,16,16,16h80c8.84,0,16,7.16,16,16s-7.16,16-16,16h-16c-8.84,0-16,7.16-16,16s7.16,16,16,16h116.496
		c-11.056-63.576-47.968-118.224-99.528-152.784L372.616,304H280z"/>
	<path style="fill:#03DDD7;" d="M136,488c0-8.84-7.16-16-16-16H96c-8.84,0-16-7.16-16-16s7.12-16,15.952-16
		c42.68,0,97.664,0,128.088,0c8.84,0,15.96-7.168,15.96-16s-7.16-16-16-16h-80c-8.84,0-16-7.168-16-16c0-8.84,7.144-16,15.984-16
		c5.152,0,10.872,0,16.024,0c8.84,0,15.992-7.16,15.992-16.08v-0.4c0-8.584-6.96-15.536-15.536-15.536L88.088,344
		C48.408,385.632,24,441.944,24,504h96C128.84,504,136,496.84,136,488z"/>
	<path style="fill:#03DDD7;" d="M296,440h-16c-8.84,0-16,7.16-16,16s7.16,16,16,16h16c8.84,0,16-7.16,16-16S304.84,440,296,440z"/>
</g>
<circle style="fill:#FBC926;" cx="256" cy="48" r="40"/>
<g>
	<circle style="fill:#F4EBDC;" cx="400" cy="88" r="40"/>
	<circle style="fill:#F4EBDC;" cx="112" cy="88" r="40"/>
	<path style="fill:#F4EBDC;" d="M152,216h32v-40v-16c0-17.672-14.328-32-32-32h-40H72c-17.672,0-32,14.328-32,32v56h32v144l40-40
		l17.552-10.256L152,296.632V216z"/>
	<path style="fill:#F4EBDC;" d="M328,216h32v80.632L372.616,304l12.352,7.216L400,320l40,40V216h32v-56c0-17.672-14.328-32-32-32
		h-40h-40c-17.672,0-32,14.328-32,32v16V216z"/>
</g>
<g>
	<path style="fill:#243766;" d="M296,432h-16c-13.232,0-24,10.768-24,24s10.768,24,24,24h16c13.232,0,24-10.768,24-24
		S309.232,432,296,432z M296,464h-16c-4.408,0-8-3.584-8-8s3.592-8,8-8h16c4.408,0,8,3.584,8,8S300.408,464,296,464z"/>
	<path style="fill:#243766;" d="M448,360V224h24c4.416,0,8-3.576,8-8v-56c0-22.056-17.944-40-40-40h-4.32
		c7.632-8.504,12.32-19.696,12.32-32c0-26.472-21.528-48-48-48s-48,21.528-48,48c0,12.304,4.688,23.496,12.32,32H360
		c-9.04,0-17.296,3.128-24,8.208V120c0-22.056-17.944-40-40-40h-4.32C299.312,71.496,304,60.304,304,48c0-26.472-21.528-48-48-48
		s-48,21.528-48,48c0,12.304,4.688,23.496,12.32,32H216c-22.056,0-40,17.944-40,40v8.208c-6.704-5.08-14.96-8.208-24-8.208h-4.32
		c7.632-8.504,12.32-19.696,12.32-32c0-26.472-21.528-48-48-48S64,61.528,64,88c0,12.304,4.688,23.496,12.32,32H72
		c-22.056,0-40,17.944-40,40v56c0,4.424,3.584,8,8,8h24v136h0.128C33.928,400.144,16,450.016,16,504c0,4.424,3.584,8,8,8h96h368
		c4.416,0,8-3.576,8-8c0-53.984-17.928-103.856-48.128-144H448z M368,88c0-17.648,14.352-32,32-32s32,14.352,32,32s-14.352,32-32,32
		S368,105.648,368,88z M360,136h80c13.232,0,24,10.768,24,24v48h-16v-48h-16v181.056c-7.48-8.072-15.488-15.648-24-22.64V224h-16
		v82.4c-5.184-3.584-10.528-6.944-16-10.112V296h-0.504c-2.48-1.432-4.968-2.832-7.496-4.176V160h-16v48h-16v-32v-16
		C336,146.768,346.768,136,360,136z M384,392h-80c-4.408,0-8-3.584-8-8s3.592-8,8-8h16c13.232,0,24-10.768,24-24s-10.768-24-24-24
		h-40c-4.408,0-8-3.584-8-8s3.592-8,8-8h91.216c51.936,31.28,90.176,83.032,103.544,144H368c-4.408,0-8-3.584-8-8s3.592-8,8-8h16
		c13.232,0,24-10.768,24-24S397.232,392,384,392z M304,184h16v32c0,4.424,3.584,8,8,8h24v60.096
		c-15.248-6.688-31.304-11.864-48-15.272V184z M224,48c0-17.648,14.352-32,32-32s32,14.352,32,32s-14.352,32-32,32
		S224,65.648,224,48z M192,120c0-13.232,10.768-24,24-24h80c13.232,0,24,10.768,24,24v40v8h-16v-48h-16v146.176
		c-0.216-0.032-0.44-0.04-0.656-0.064c-4.608-0.608-9.264-1.08-13.952-1.416c-0.76-0.056-1.52-0.128-2.28-0.176
		c-2.36-0.144-4.728-0.24-7.112-0.32V184h-16v80.2c-2.376,0.08-4.752,0.176-7.112,0.32c-0.76,0.048-1.52,0.12-2.28,0.176
		c-4.688,0.336-9.344,0.808-13.952,1.416c-0.216,0.032-0.44,0.04-0.656,0.064V120h-16v48h-16v-8V120z M160,284.096V224h24
		c4.416,0,8-3.576,8-8v-32h16v84.832C191.304,272.232,175.248,277.416,160,284.096z M80,88c0-17.648,14.352-32,32-32
		s32,14.352,32,32s-14.352,32-32,32S80,105.648,80,88z M64,160v48H48v-48c0-13.232,10.768-24,24-24h80c13.232,0,24,10.768,24,24v16
		v32h-16v-48h-16v131.824c-8.304,4.4-16.312,9.264-24,14.576V224h-16v94.424c-8.512,6.984-16.52,14.56-24,22.64V160H64z M32.144,496
		c1.96-55.48,24.216-105.864,59.512-144l68.808-0.016c4.16,0,7.536,3.376,7.536,7.936c0,2.176-0.832,4.216-2.352,5.744
		c-1.496,1.504-3.496,2.336-5.632,2.336c0,0,0,0-0.008,0h-16.024C130.76,368,120,378.768,120,392s10.768,24,24,24h80
		c4.408,0,8,3.584,8,8s-3.568,8-7.96,8H95.952C82.744,432,72,442.768,72,456s10.768,24,24,24h24c4.408,0,8,3.584,8,8s-3.592,8-8,8
		H32.144z M142.528,496c0.896-2.512,1.472-5.184,1.472-8c0-13.232-10.768-24-24-24H96c-4.408,0-8-3.584-8-8s3.568-8,7.952-8H224.04
		c13.216,0,23.96-10.768,23.96-24s-10.768-24-24-24h-80c-4.408,0-8-3.584-8-8s3.584-8,7.984-8H160c0.008,0,0.016,0,0.024,0
		c6.416,0,12.44-2.496,16.968-7.048c4.512-4.536,7.008-10.584,7.008-17.44c0-12.976-10.56-23.528-23.536-23.528L108,335.992
		c30.376-26.792,68.064-45.432,109.632-52.64c6.28-1.08,12.536-1.904,18.776-2.456c0.304-0.024,0.608-0.04,0.904-0.064
		c12.48-1.056,24.904-1.056,37.376,0c0.304,0.024,0.608,0.04,0.904,0.064c6.24,0.552,12.496,1.376,18.776,2.456
		c15.48,2.688,30.432,6.944,44.656,12.64H280c-13.232,0-24,10.768-24,24s10.768,24,24,24h40c4.408,0,8,3.584,8,8s-3.592,8-8,8h-16
		c-13.232,0-24,10.768-24,24s10.768,24,24,24h80c4.408,0,8,3.584,8,8s-3.592,8-8,8h-16c-13.232,0-24,10.768-24,24s10.768,24,24,24
		h109.68c1.136,7.88,1.888,15.88,2.176,24H142.528V496z"/>
</g>
<g>
</g>
<g>
</g>
<g>
</g>
<g>
</g>
<g>
</g>
<g>
</g>
<g>
</g>
<g>
</g>
<g>
</g>
<g>
</g>
<g>
</g>
<g>
</g>
<g>
</g>
<g>
</g>
<g>
</g>
</svg>
