<svg height="512pt" viewBox="0 0 512 512" width="512pt" xmlns="http://www.w3.org/2000/svg"><path d="m256 0c-140.699219 0-256 115.300781-256 256s115.300781 256 256 256 256-115.300781 256-256-115.300781-256-256-256zm0 0" fill="#ffda2d"/><path d="m512 256c0 140.699219-115.300781 256-256 256v-512c140.699219 0 256 115.300781 256 256zm0 0" fill="#fdbf00"/><path d="m385 388c-6.597656 5.101562-15.898438 3.898438-21-3-25.800781-34.199219-65.097656-54-108-54-42.898438 0-82.199219 19.800781-107.996094 54-5.101562 6.597656-14.402344 8.101562-21 3-6.601562-4.800781-8.101562-14.398438-3.003906-21 31.5-42 79.800781-66 132-66s100.5 24 132 66c5.101562 6.597656 3.601562 16.199219-3 21zm0 0" fill="#ff637b"/><path d="m125.394531 266.605469c-5.859375-5.859375-5.859375-15.351563 0-21.210938l49.394531-49.394531-49.394531-49.394531c-5.859375-5.859375-5.859375-15.351563 0-21.210938s15.351563-5.859375 21.210938 0l60 60c5.859375 5.859375 5.859375 15.351563 0 21.210938l-60 60c-5.859375 5.859375-15.351563 5.859375-21.210938 0zm0 0" fill="#895d3c"/><path d="m365.394531 266.605469-60-60c-5.859375-5.859375-5.859375-15.351563 0-21.210938l60-60c5.859375-5.859375 15.351563-5.859375 21.210938 0s5.859375 15.351563 0 21.210938l-49.394531 49.394531 49.394531 49.394531c5.859375 5.859375 5.859375 15.351563 0 21.210938s-15.351563 5.859375-21.210938 0zm0 0" fill="#714c2f"/><path d="m385 388c-6.597656 5.101562-15.898438 3.898438-21-3-25.800781-34.199219-65.097656-54-108-54v-30c52.199219 0 100.5 24 132.003906 66 5.097656 6.597656 3.597656 16.199219-3.003906 21zm0 0" fill="#e63950"/></svg>