<svg height="512pt" viewBox="0 -17 512 512" width="512pt" xmlns="http://www.w3.org/2000/svg"><path d="m50.742188 153.617188c-7.160157-7.914063-12.667969-17.179688-16.203126-27.25-1.207031-3.316407 1.625-6.636719 4.214844-4.859376 7.933594 5.5 17.1875 8.789063 26.808594 9.539063.359375-2.605469.84375-5.152344 1.445312-7.703125-9.957031-14.128906-14.707031-31.277344-13.433593-48.515625.179687-3.5 4.097656-5.453125 5.78125-2.84375 5.160156 7.945313 12.332031 14.382813 20.785156 18.65625 1.359375-2.371094 2.847656-4.664063 4.457031-6.871094-3.5-16.722656-1.160156-34.136719 6.625-49.34375 1.566406-3.199219 5.902344-3.554687 6.445313-.476562 1.609375 9.015625 5.558593 17.453125 11.445312 24.46875 2.410157-1.835938 4.9375-3.613281 7.527344-5.214844 3.507813-16.390625 12.339844-31.160156 25.121094-42 2.652343-2.3125 6.808593-1.007813 6.144531 2.011719-1.933594 8.554687-1.6875 17.457031.722656 25.890625 3.371094-.933594 6.789063-1.683594 10.242188-2.253907 9.558594-13.183593 23.0625-22.996093 38.554687-28.019531 3.375-1.183593 6.75 1.601563 4.941407 4.148438-4.910157 6.839843-8.089844 14.765625-9.277344 23.101562 3.898437.402344 7.761718 1.074219 11.566406 2.015625 13.660156-7.96875 29.402344-11.640625 45.179688-10.546875 3.554687.179688 5.542968 4.03125 2.890624 5.6875-6.859374 4.285157-12.648437 10.082031-16.925781 16.945313 3.753907 2.085937 7.375 4.398437 10.84375 6.929687 15.167969-1.851562 30.550781.742188 44.277344 7.464844 3.25 1.539063 3.613281 5.804687.480469 6.339844-7.71875 1.328125-15.054688 4.320312-21.503906 8.765625 2.816406 3.601562 5.390624 7.378906 7.710937 11.316406 14.265625 4.105469 27.074219 12.175781 36.929687 23.277344 2.347657 2.609375 1.023438 6.695312-2.046874 6.042968-7.496094-1.632812-15.25-1.691406-22.773438-.175781 1.199219 4.53125 2.066406 9.144531 2.589844 13.800781 6.910156 5.453126 12.769531 12.121094 17.285156 19.671876l-146.039062 32zm0 0" fill="#7f8e94"/><path d="m92.929688 153.617188c.8125-46.953126 38.800781-84.753907 85.757812-85.332032 46.957031.578125 84.945312 38.378906 85.761719 85.332032" fill="#9e9e9e"/><path d="m145.066406 153.617188c0-18.851563 15.28125-34.132813 34.132813-34.132813 18.851562 0 34.132812 15.28125 34.132812 34.132813" fill="#607d8b"/><path d="m494.933594 153.617188h-477.867188c-4.707031.015624-8.519531 3.828124-8.53125 8.535156v42.664062c.011719 4.707032 3.824219 8.519532 8.53125 8.535156h34.132813v247.464844c.015625 4.707032 3.828125 8.519532 8.535156 8.535156h42.664063c4.707031-.015624 8.519531-3.828124 8.535156-8.535156v-17.066406l145.066406-61.097656 145.066406 61.097656v17.066406c.015625 4.707032 3.828125 8.519532 8.535156 8.535156h42.664063c4.707031-.015624 8.519531-3.828124 8.535156-8.535156v-247.464844h34.132813c4.707031-.015624 8.519531-3.828124 8.53125-8.535156v-42.664062c-.011719-4.707032-3.824219-8.519532-8.53125-8.535156zm-384 224.425781v-56.320313l66.988281 28.246094zm40.53125-104.957031h209.070312l-104.535156 44.03125zm249.601562 104.957031-67.070312-28.074219 67.070312-28.246094zm0 0" fill="#91562d"/><path d="m460.800781 213.351562v247.464844c-.015625 4.707032-3.828125 8.519532-8.535156 8.535156h-25.597656c4.707031-.015624 8.519531-3.828124 8.53125-8.535156v-247.464844zm0 0" fill="#6d4122"/><path d="m256 382.652344-145.066406 61.097656v-65.707031l66.988281-28.074219h.082031zm0 0" fill="#a0522d"/><path d="m401.066406 378.042969v65.707031l-145.066406-61.097656-77.996094-32.683594h-.082031l-66.988281-28.246094v-48.636718h40.53125l104.535156 44.03125 77.996094 32.851562zm0 0" fill="#825a2c"/><path d="m17.066406 153.617188h477.867188c4.710937 0 8.53125 3.820312 8.53125 8.535156v42.664062c0 4.714844-3.820313 8.535156-8.53125 8.535156h-477.867188c-4.710937 0-8.53125-3.820312-8.53125-8.535156v-42.664062c0-4.714844 3.820313-8.535156 8.53125-8.535156zm0 0" fill="#dfc49c"/><path d="m17.066406 153.617188h452.265625c4.714844 0 8.535157 3.820312 8.535157 8.535156v42.664062c0 4.714844-3.820313 8.535156-8.535157 8.535156h-452.265625c-4.710937 0-8.53125-3.820312-8.53125-8.535156v-42.664062c0-4.714844 3.820313-8.535156 8.53125-8.535156zm0 0" fill="#ffe0b2"/><path d="m401.066406 273.085938v48.636718l-67.070312 28.246094-77.996094-32.851562 104.535156-44.03125zm0 0" fill="#a0522d"/><path d="m110.933594 213.351562h290.132812v59.734376h-290.132812zm0 0" fill="#91562d"/><path d="m358.398438 110.949219h102.402343c4.710938 0 8.53125 3.820312 8.53125 8.535156v51.199219c0 4.714844-3.820312 8.535156-8.53125 8.535156h-102.402343c-4.710938 0-8.53125-3.820312-8.53125-8.535156v-51.199219c0-4.714844 3.820312-8.535156 8.53125-8.535156zm0 0" fill="#ffdc00"/><path d="m435.199219 145.085938c0 14.136718-11.460938 25.597656-25.597657 25.597656-14.140624 0-25.601562-11.460938-25.601562-25.597656 0-14.140626 11.460938-25.601563 25.601562-25.601563 14.136719 0 25.597657 11.460937 25.597657 25.601563zm0 0" fill="#f44335"/><path d="m102.398438 477.882812h-42.664063c-9.421875-.007812-17.058594-7.644531-17.066406-17.066406v-247.464844c0-4.714843 3.820312-8.535156 8.53125-8.535156h59.734375c4.710937 0 8.53125 3.820313 8.53125 8.535156v247.464844c-.007813 9.421875-7.644532 17.058594-17.066406 17.066406zm-42.664063-256v238.933594h42.679687l-.015624-238.933594zm0 0"/><path d="m452.265625 477.882812h-42.664063c-9.421874-.007812-17.058593-7.644531-17.066406-17.066406v-247.464844c0-4.714843 3.820313-8.535156 8.53125-8.535156h59.734375c4.710938 0 8.53125 3.820313 8.53125 8.535156v247.464844c-.007812 9.421875-7.644531 17.058594-17.066406 17.066406zm-42.664063-256v238.933594h42.679688l-.015625-238.933594zm0 0"/><path d="m110.9375 452.289062c-4.070312.007813-7.578125-2.855468-8.386719-6.84375-.804687-3.988281 1.316407-7.988281 5.070313-9.5625l145.066406-61.074218c2.808594-1.183594 6.039062-.777344 8.46875 1.066406 2.429688 1.839844 3.691406 4.839844 3.3125 7.863281-.378906 3.027344-2.34375 5.621094-5.15625 6.804688l-145.066406 61.074219c-1.046875.441406-2.171875.671874-3.308594.671874zm0 0"/><path d="m334 358.464844c-4.066406.003906-7.570312-2.859375-8.375-6.84375s1.3125-7.984375 5.058594-9.558594l67.070312-28.246094c2.824219-1.246094 6.097656-.875 8.570313.972656 2.46875 1.847657 3.75 4.886719 3.347656 7.945313-.40625 3.058594-2.425781 5.664063-5.289063 6.808594l-67.074218 28.246093c-1.046875.445313-2.171875.675782-3.308594.675782zm0 0"/><path d="m256.003906 325.65625c-4.0625.003906-7.566406-2.859375-8.371094-6.84375-.808593-3.984375 1.308594-7.980469 5.054688-9.558594l104.53125-44.03125c2.824219-1.25 6.097656-.875 8.570312.972656 2.46875 1.847657 3.75 4.886719 3.347657 7.945313-.402344 3.058594-2.425781 5.660156-5.289063 6.808594l-104.535156 44.03125c-1.046875.445312-2.171875.675781-3.308594.675781zm0 0"/><path d="m110.9375 386.621094c-4.066406.007812-7.574219-2.855469-8.382812-6.84375-.804688-3.988282 1.316406-7.988282 5.070312-9.558594l66.988281-28.160156c2.640625-1.003906 5.601563-.671875 7.957031.886718 2.355469 1.558594 3.816407 4.15625 3.925782 6.980469.011718 3.699219-2.367188 6.984375-5.890625 8.128907l-66.359375 27.894531c-1.046875.441406-2.171875.671875-3.308594.671875zm0 0"/><path d="m401.066406 386.578125c-1.128906-.003906-2.25-.230469-3.292968-.667969l-249.621094-104.964844c-2.863282-1.144531-4.886719-3.75-5.289063-6.808593-.402343-3.058594.878907-6.09375 3.347657-7.945313 2.472656-1.847656 5.746093-2.21875 8.570312-.96875l249.582031 104.949219c3.75 1.566406 5.875 5.566406 5.074219 9.554687-.800781 3.984376-4.304688 6.851563-8.371094 6.851563zm0 0"/><path d="m401.066406 452.289062c-1.136718 0-2.261718-.230468-3.308594-.671874l-222.476562-93.578126c-.230469-.074218-.457031-.160156-.679688-.25l-66.988281-28.246093c-4.34375-1.832031-6.378906-6.835938-4.546875-11.179688 1.832032-4.34375 6.839844-6.378906 11.179688-4.546875l66.40625 28c.21875.070313.441406.152344.652344.242188l223.074218 93.824218c3.753906 1.574219 5.875 5.574219 5.070313 9.5625-.804688 3.988282-4.316407 6.851563-8.382813 6.84375zm0 0"/><path d="m494.933594 221.882812h-477.867188c-9.421875-.007812-17.0585935-7.644531-17.066406-17.066406v-42.664062c.0078125-9.421875 7.644531-17.058594 17.066406-17.066406h332.800782c4.710937 0 8.53125 3.820312 8.53125 8.53125 0 4.714843-3.820313 8.535156-8.53125 8.535156h-332.800782v42.664062h477.867188v-42.664062h-25.601563c-4.710937 0-8.53125-3.820313-8.53125-8.535156 0-4.710938 3.820313-8.53125 8.53125-8.53125h25.601563c9.421875.007812 17.058594 7.644531 17.066406 17.066406v42.664062c-.007812 9.421875-7.644531 17.058594-17.066406 17.066406zm0 0"/><path d="m401.066406 281.617188h-290.132812c-4.714844 0-8.535156-3.820313-8.535156-8.53125v-59.734376c0-4.714843 3.820312-8.535156 8.535156-8.535156h290.132812c4.714844 0 8.535156 3.820313 8.535156 8.535156v59.734376c0 4.710937-3.820312 8.53125-8.535156 8.53125zm-281.601562-17.066407h273.070312v-42.667969h-273.070312zm0 0"/><path d="m309.605469 162.152344c-2.996094.003906-5.773438-1.5625-7.316407-4.125-3.984374-6.667969-9.152343-12.550782-15.25-17.359375-1.796874-1.40625-2.949218-3.472657-3.210937-5.738281-.480469-4.242188-1.265625-8.449219-2.351563-12.578126-.609374-2.277343-.25-4.707031.996094-6.707031 1.246094-2.003906 3.261719-3.402343 5.574219-3.863281 3.257813-.65625 6.558594-1.058594 9.878906-1.203125-6.734375-5.203125-14.40625-9.058594-22.601562-11.351563-2.125-.589843-3.9375-1.980468-5.0625-3.878906-2.128907-3.617187-4.496094-7.089844-7.082031-10.394531-1.457032-1.855469-2.078126-4.230469-1.71875-6.5625.355468-2.332031 1.660156-4.410156 3.605468-5.742187 2.882813-1.976563 5.917969-3.714844 9.085938-5.195313-8.59375-2.375-17.574219-3.011719-26.414063-1.878906-2.167969.285156-4.363281-.277344-6.128906-1.566407-3.183594-2.324218-6.503906-4.449218-9.949219-6.363281-2.054687-1.136719-3.546875-3.070312-4.128906-5.339843-.585938-2.273438-.207031-4.6875 1.042969-6.671876 2.042969-3.242187 4.375-6.292968 6.96875-9.117187-9.367188 1.0625-18.402344 4.101563-26.511719 8.910156-1.9375 1.148438-4.25 1.492188-6.4375.949219-3.421875-.84375-6.898438-1.445312-10.402344-1.804688-2.308594-.246093-4.417968-1.421874-5.839844-3.253906-1.425781-1.835937-2.042968-4.167968-1.710937-6.46875.625-4.25 1.683594-8.425781 3.167969-12.457031-8.710938 4.691406-16.226563 11.324219-21.964844 19.382813-1.3125 1.855468-3.308594 3.113281-5.546875 3.492187-3.152344.515625-6.277344 1.199219-9.355469 2.046875-2.179687.613281-4.511718.335938-6.488281-.769531-1.972656-1.109375-3.425781-2.957031-4.035156-5.140625-1.296875-4.605469-2.058594-9.351563-2.261719-14.132813-6.550781 8.011719-11.0625 17.492188-13.148438 27.628907-.464843 2.3125-1.871093 4.328124-3.878906 5.570312-2.351562 1.449219-4.648437 3.066406-6.835937 4.734375-3.644531 2.777344-8.828125 2.183594-11.75-1.347656-3.359375-4.046875-6.191407-8.496094-8.4375-13.25-3.023438 10.179687-3.425781 20.957031-1.171875 31.332031.53125 2.414062-.007813 4.941406-1.484375 6.925781-1.421875 1.953125-2.738281 3.984375-3.941407 6.082031-2.285156 3.925782-7.25 5.367188-11.28125 3.28125-4.953124-2.550781-9.554687-5.726562-13.695312-9.453124 1.226562 10.675781 5.148438 20.859374 11.40625 29.59375 1.441406 2.007812 1.945312 4.542968 1.375 6.949218-.542969 2.285156-.972656 4.566406-1.296875 6.90625-.597656 4.515625-4.660156 7.753906-9.199219 7.324219-5.617187-.480469-11.152344-1.679687-16.460937-3.578125 2.445312 4.265625 5.351562 8.246094 8.667969 11.875 2.136718 2.234375 2.898437 5.449219 1.996093 8.402344-.90625 2.953125-3.339843 5.1875-6.359375 5.839844-3.019531.652343-6.15625-.378907-8.203125-2.695313-7.914062-8.75-14.015625-18.984375-17.941406-30.109375-1.917969-5.171875-.324219-10.988281 3.964844-14.460938 3.808593-3.007812 9.144531-3.148437 13.105469-.34375 3.5 2.449219 7.339843 4.378907 11.394531 5.730469-7.53125-14.042969-10.96875-29.917969-9.925781-45.820312.253906-5.492188 3.976562-10.21875 9.257812-11.75 4.667969-1.296875 9.628906.621093 12.214844 4.714843 2.300781 3.574219 5.113281 6.789063 8.34375 9.550782-1.488282-15.902344 1.515625-31.90625 8.671875-46.183594 2.371093-5.015625 7.683593-7.960938 13.195312-7.3125 4.769531.632812 8.5625 4.316406 9.335938 9.066406.738281 4.15625 2.082031 8.183594 3.996093 11.945313 4.835938-15.355469 13.847657-29.066407 26.027344-39.59375 4.136719-3.703125 10.167969-4.367188 15.011719-1.648438 4.136719 2.398438 6.21875 7.21875 5.136719 11.878907-.933594 4.089843-1.265625 8.292968-.984375 12.476562 10.402343-12.378906 24.023437-21.636719 39.359375-26.753906 5.234375-1.898438 11.09375-.238282 14.554687 4.128906 2.933594 3.820312 2.996094 9.121094.15625 13.011719-2.417969 3.363281-4.34375 7.058593-5.714843 10.96875 14.34375-7.527344 30.488281-10.9375 46.652343-9.855469 5.546875.21875 10.324219 3.976562 11.847657 9.3125 1.265624 4.675781-.71875 9.621094-4.863282 12.128906-3.300781 2.050782-6.3125 4.53125-8.953125 7.382813l.625.425781c15.699219-1.273438 31.453125 1.6875 45.617188 8.574219 5.050781 2.300781 8.054687 7.585937 7.445312 13.101562-.621093 4.816407-4.355469 8.640625-9.15625 9.375-3.605469.617188-7.121093 1.671875-10.472656 3.140625.277344.425782.554687.863282.824219 1.296875 14.492187 4.816407 27.46875 13.347657 37.632812 24.742188 3.742188 4.046875 4.488282 10.027343 1.855469 14.871093-2.375 4.207032-7.230469 6.359376-11.945313 5.292969-3.515624-.757812-7.101562-1.121093-10.695312-1.085937.105469.632812.203125 1.273437.296875 1.914062 6.539063 5.648438 12.132813 12.300782 16.578125 19.710938 1.585938 2.636718 1.632812 5.917968.121094 8.597656-1.511719 2.679688-4.347656 4.335938-7.421875 4.339844zm-19.65625-99.644532-.027344.003907zm0 0"/><path d="m92.933594 162.152344h-.25c-2.261719-.066406-4.40625-1.027344-5.960938-2.671875-1.554687-1.644531-2.390625-3.84375-2.324218-6.105469.46875-51.742188 42.546874-93.441406 94.289062-93.441406 51.746094 0 93.824219 41.699218 94.292969 93.441406.128906 3.074219-1.40625 5.976562-4.019531 7.601562-2.609376 1.625-5.894532 1.722657-8.59375.25-2.699219-1.472656-4.398438-4.285156-4.445313-7.359374-.144531-42.554688-34.679687-76.976563-77.234375-76.976563-42.550781 0-77.089844 34.421875-77.230469 76.976563-.132812 4.613281-3.910156 8.28125-8.523437 8.285156zm0 0"/><path d="m213.332031 162.152344c-4.710937 0-8.53125-3.820313-8.53125-8.535156 0-14.136719-11.460937-25.597657-25.601562-25.597657-14.136719 0-25.597657 11.460938-25.597657 25.597657 0 4.714843-3.820312 8.535156-8.535156 8.535156-4.710937 0-8.53125-3.820313-8.53125-8.535156 0-23.5625 19.101563-42.667969 42.664063-42.667969 23.566406 0 42.667969 19.105469 42.667969 42.667969 0 4.714843-3.820313 8.535156-8.535157 8.535156zm0 0"/><path d="m153.601562 247.484375c-4.714843 0-8.535156-3.820313-8.535156-8.535156v-25.597657c0-4.714843 3.820313-8.535156 8.535156-8.535156 4.710938 0 8.53125 3.820313 8.53125 8.535156v25.597657c0 4.714843-3.820312 8.535156-8.53125 8.535156zm0 0"/><path d="m358.398438 247.484375c-4.710938 0-8.53125-3.820313-8.53125-8.535156v-25.597657c0-4.714843 3.820312-8.535156 8.53125-8.535156 4.714843 0 8.535156 3.820313 8.535156 8.535156v25.597657c0 4.714843-3.820313 8.535156-8.535156 8.535156zm0 0"/><path d="m460.800781 187.75h-102.402343c-9.421876-.007812-17.054688-7.644531-17.066407-17.066406v-51.199219c.011719-9.421875 7.644531-17.058594 17.066407-17.066406h102.402343c9.421875.007812 17.054688 7.644531 17.066407 17.066406v51.199219c-.011719 9.421875-7.644532 17.058594-17.066407 17.066406zm-102.402343-68.265625v51.199219h102.414062l-.011719-51.199219zm0 0"/><path d="m409.601562 179.21875c-18.851562 0-34.136718-15.28125-34.136718-34.132812 0-18.851563 15.285156-34.136719 34.136718-34.136719 18.851563 0 34.132813 15.285156 34.132813 34.136719-.023437 18.839843-15.292969 34.109374-34.132813 34.132812zm0-51.199219c-9.425781 0-17.066406 7.640625-17.066406 17.066407 0 9.425781 7.640625 17.066406 17.066406 17.066406 9.425782 0 17.066407-7.640625 17.066407-17.066406-.011719-9.421876-7.644531-17.058594-17.066407-17.066407zm0 0"/></svg>