<?xml version="1.0" encoding="iso-8859-1"?>
<!-- Generator: Adobe Illustrator 19.0.0, SVG Export Plug-In . SVG Version: 6.00 Build 0)  -->
<svg version="1.1" id="Capa_1" xmlns="http://www.w3.org/2000/svg" xmlns:xlink="http://www.w3.org/1999/xlink" x="0px" y="0px"
	 viewBox="0 0 512.001 512.001" style="enable-background:new 0 0 512.001 512.001;" xml:space="preserve">
<polygon style="fill:#FFB74D;" points="256.001,109.3 39.179,171.756 39.179,206.402 39.179,342.385 265.308,351.803 
	472.822,342.385 472.822,206.402 472.822,169.871 "/>
<g>
	<rect x="76.09" y="148.87" style="fill:#E6643C;" width="30.94" height="193.51"/>
	<rect x="302.05" y="148.87" style="fill:#E6643C;" width="30.94" height="193.51"/>
	<rect x="410.94" y="148.87" style="fill:#E6643C;" width="30.94" height="193.51"/>
</g>
<rect x="39.18" y="281.19" style="opacity:0.1;enable-background:new    ;" width="433.64" height="30"/>
<path style="fill:#FF6F43;" d="M489.031,250.252H22.97c-8.544,0-15.47,6.926-15.47,15.47l0,0c0,8.544,6.926,15.47,15.47,15.47
	h466.06c8.544,0,15.47-6.926,15.47-15.47l0,0C504.5,257.178,497.574,250.252,489.031,250.252z"/>
<rect x="144.62" y="229.49" style="fill:#6D4C41;" width="89.97" height="128.37"/>
<rect x="39.18" y="357.86" style="fill:#43A047;" width="30.94" height="141.95"/>
<g>
	<rect x="144.62" y="398.92" style="fill:#66BB6A;" width="89.97" height="30.94"/>
	<rect x="144.62" y="456.21" style="fill:#66BB6A;" width="89.97" height="30.94"/>
</g>
<g>
	<rect x="129.15" y="357.86" style="fill:#43A047;" width="30.94" height="141.95"/>
	<rect x="219.12" y="357.86" style="fill:#43A047;" width="30.94" height="141.95"/>
	<rect x="441.88" y="357.86" style="fill:#43A047;" width="30.94" height="141.95"/>
</g>
<rect x="441.88" y="357.86" style="opacity:0.1;enable-background:new    ;" width="30.939" height="45.47"/>
<rect x="39.18" y="357.86" style="opacity:0.1;enable-background:new    ;" width="30.94" height="45.47"/>
<path style="fill:#66BB6A;" d="M489.031,342.385H22.97c-8.544,0-15.47,6.926-15.47,15.47l0,0c0,8.544,6.926,15.47,15.47,15.47
	h466.06c8.544,0,15.47-6.926,15.47-15.47l0,0C504.5,349.311,497.574,342.385,489.031,342.385z"/>
<path style="fill:#FF9800;" d="M288.648,16.627c-21.354-5.904-43.942-5.904-65.295,0C36.917,68.171,17.496,184.72,17.496,184.72
	c0,11.975,9.707,21.682,21.682,21.682l0,0c11.975,0,21.682-9.707,21.682-21.682c0,11.975,9.707,21.682,21.682,21.682
	s21.682-9.707,21.682-21.682c0,11.975,9.707,21.682,21.682,21.682l0,0c11.975,0,21.682-9.707,21.682-21.682
	c0,11.975,9.707,21.682,21.682,21.682l0,0c11.975,0,21.682-9.707,21.682-21.682c0,11.975,9.707,21.682,21.682,21.682l0,0
	c11.975,0,21.682-9.707,21.682-21.682c0,11.975,9.707,21.682,21.682,21.682s21.682-9.707,21.682-21.682
	c0,11.975,9.708,21.682,21.682,21.682l0,0c11.975,0,21.682-9.707,21.682-21.682c0,11.975,9.707,21.682,21.682,21.682l0,0
	c11.975,0,21.682-9.707,21.682-21.682c0,11.975,9.707,21.682,21.682,21.682s21.682-9.707,21.682-21.682
	c0,11.975,9.707,21.682,21.682,21.682l0,0c11.975,0,21.682-9.707,21.682-21.682c0,11.975,9.707,21.682,21.682,21.682l0,0
	c11.975,0,21.682-9.707,21.682-21.682C494.505,184.72,475.084,68.171,288.648,16.627z"/>
<g style="opacity:0.1;">
	<path d="M223.353,16.626C36.917,68.171,17.496,184.72,17.496,184.72c0,11.975,9.708,21.682,21.682,21.682l0,0
		c11.975,0,21.682-9.708,21.682-21.682c0,0,20.59-112.682,203.661-172.221C250.72,11.539,236.792,12.911,223.353,16.626z"/>
</g>
<path d="M489.03,334.886h-8.708v-46.194h8.708c12.666,0,22.971-10.304,22.971-22.97c0-12.666-10.305-22.97-22.971-22.97h-8.708
	v-29.831c12.468-3.319,21.683-14.702,21.683-28.201c0-0.413-0.034-0.825-0.102-1.232c-0.212-1.268-5.507-31.466-34.532-68.14
	c-16.858-21.3-38.332-40.479-63.826-57.005c-31.65-20.517-69.636-36.984-112.898-48.945c-22.666-6.267-46.627-6.267-69.293,0
	c-34.875,9.642-66.46,22.267-93.879,37.525c-3.619,2.014-4.92,6.582-2.906,10.201c2.015,3.619,6.578,4.921,10.201,2.906
	c26.378-14.679,56.854-26.85,90.582-36.175c20.051-5.543,41.248-5.543,61.297,0c93.757,25.921,143.274,68.676,168.306,99.979
	c21.16,26.461,30.107,51.397,32.038,61.49c-0.317,7.541-6.552,13.579-14.17,13.579c-7.82,0-14.183-6.362-14.183-14.182
	c0-4.142-3.357-7.5-7.5-7.5s-7.5,3.358-7.5,7.5c0,7.649-6.536,14.116-14.161,14.171c-7.724,0.056-14.203-6.472-14.203-14.171
	c0-4.142-3.357-7.5-7.5-7.5s-7.5,3.358-7.5,7.5c0,7.82-6.362,14.182-14.183,14.182s-14.183-6.362-14.183-14.182
	c0-4.142-3.357-7.5-7.5-7.5s-7.5,3.358-7.5,7.5c0,7.82-6.362,14.182-14.182,14.182c-7.598,0-14.182-6.448-14.182-14.182
	c0-4.142-3.357-7.5-7.5-7.5s-7.5,3.358-7.5,7.5c0,7.692-6.489,14.182-14.184,14.182c-7.819,0-14.182-6.362-14.182-14.182
	c0-4.142-3.357-7.5-7.5-7.5s-7.5,3.358-7.5,7.5c0,7.82-6.362,14.182-14.182,14.182s-14.183-6.362-14.183-14.182
	c0-4.142-3.357-7.5-7.5-7.5s-7.5,3.358-7.5,7.5c0,7.82-6.362,14.182-14.183,14.182c-7.819,0-14.182-6.362-14.182-14.182
	c0-4.142-3.357-7.5-7.5-7.5s-7.5,3.358-7.5,7.5c0,7.82-6.362,14.182-14.183,14.182s-14.183-6.362-14.183-14.182
	c0-4.142-3.357-7.5-7.5-7.5s-7.5,3.358-7.5,7.5c0,7.82-6.362,14.182-14.182,14.182c-7.638,0-14.182-6.533-14.182-14.182
	c0-4.142-3.357-7.5-7.5-7.5s-7.5,3.358-7.5,7.5c0,7.82-6.362,14.182-14.183,14.182c-7.722,0-14.183-6.468-14.183-14.182
	c0-4.142-3.357-7.5-7.5-7.5s-7.5,3.358-7.5,7.5c0,7.82-6.362,14.182-14.182,14.182c-7.604,0-13.828-6.014-14.167-13.535
	c0.625-2.988,3.883-16.708,14.22-35.187c19.511-34.878,48.842-59.663,70.013-74.313c3.406-2.356,4.257-7.028,1.899-10.435
	c-2.356-3.406-7.029-4.258-10.435-1.899c-78.919,54.612-90.17,117.313-90.61,119.955c-0.067,0.407-0.102,0.819-0.102,1.232
	c0,13.499,9.214,24.881,21.682,28.2v29.832H22.97c-12.665,0-22.969,10.304-22.969,22.97c0,12.666,10.304,22.97,22.969,22.97h8.709
	v46.194h-8.708C10.305,334.886,0,345.19,0,357.856s10.305,22.97,22.971,22.97h8.708v118.977c0,4.142,3.357,7.5,7.5,7.5h30.939
	c4.143,0,7.5-3.358,7.5-7.5V380.825h44.03v118.977c0,4.142,3.357,7.5,7.5,7.5h30.939c4.143,0,7.5-3.358,7.5-7.5v-5.149h44.03v5.149
	c0,4.142,3.357,7.5,7.5,7.5h30.939c4.143,0,7.5-3.358,7.5-7.5V380.825h176.825v118.977c0,4.142,3.357,7.5,7.5,7.5h30.939
	c4.143,0,7.5-3.358,7.5-7.5V380.825h8.708c12.666,0,22.97-10.304,22.97-22.97C512,345.19,501.696,334.886,489.03,334.886z
	 M465.322,334.886h-15.939v-46.194h15.939V334.886z M340.494,334.886v-46.194h62.949v46.194H340.494z M242.088,334.886v-46.194
	h52.466v46.194H242.088z M114.535,334.886v-46.194h22.583v46.194H114.535z M83.595,288.692h15.94v46.194h-15.94V288.692z
	 M152.118,236.985h74.97v97.9h-74.97V236.985z M309.554,288.692h15.94v46.194h-15.94V288.692z M418.443,288.692h15.939v46.194
	h-15.939V288.692z M497.001,265.722c0,4.395-3.575,7.97-7.971,7.97H242.088v-15.94H489.03
	C493.426,257.752,497.001,261.328,497.001,265.722z M309.554,212.067c0.067-0.025,0.132-0.056,0.199-0.082
	c2.212-0.844,4.322-1.957,6.267-3.307c0.453-0.314,5.259-4.145,5.009-4.422c1.335,1.477,2.828,2.824,4.466,4.017v34.478h-15.94
	v-30.684H309.554z M418.443,211.772c0,0.683,5.909,1.693,6.611,1.797c3.06,0.453,6.181,0.451,9.233-0.068
	c0.032-0.005,0.064-0.007,0.095-0.012v29.264h-15.939C418.443,242.752,418.443,211.782,418.443,211.772z M449.383,242.752v-36.741
	c0.609-0.57,1.199-1.16,1.768-1.768c3.7,4.104,8.719,7.219,14.063,8.649c0.036,0.01,0.072,0.023,0.108,0.033v29.827H449.383z
	 M364.411,204.232c5.346,5.934,13.086,9.67,21.683,9.67c6.493,0,12.496-2.134,17.35-5.734v34.584h-62.949v-28.945
	c0.739,0.057,1.482,0.095,2.235,0.095C351.326,213.903,359.066,210.166,364.411,204.232z M125.907,213.903
	c8.597,0,16.337-3.737,21.682-9.67c5.346,5.934,13.087,9.67,21.684,9.67s16.336-3.736,21.682-9.67
	c5.346,5.934,13.085,9.67,21.682,9.67s16.337-3.737,21.683-9.67c5.346,5.934,13.086,9.67,21.683,9.67
	c8.597,0,16.336-3.736,21.682-9.67c4.327,4.803,10.223,8.165,16.871,9.272v29.248H242.09v-13.267c0-4.142-3.357-7.5-7.5-7.5h-89.97
	c-4.143,0-7.5,3.358-7.5,7.5v13.267h-22.583v-31.167C118.033,213.071,121.873,213.903,125.907,213.903z M83.595,213.884
	c0.071-0.002,0.139-0.012,0.21-0.015c5.522-0.237,10.952-2.09,15.475-5.265c0.084-0.059,0.173-0.111,0.256-0.17v34.319h-15.94
	L83.595,213.884L83.595,213.884z M46.679,212.926c0.035-0.009,0.069-0.022,0.104-0.032c5.372-1.492,10.342-4.512,14.078-8.662
	c2.205,2.448,4.822,4.514,7.734,6.105v32.415H46.679V212.926z M15.001,265.722c0-4.395,3.575-7.97,7.969-7.97h114.148v15.94H22.97
	C18.576,273.692,15.001,270.117,15.001,265.722z M46.679,288.692h21.916v46.194H46.679V288.692z M62.618,492.303H46.679V380.825
	h15.939V492.303z M152.588,492.303h-15.939V380.825h15.939V492.303z M211.618,380.825v10.595h-44.03v-10.595H211.618z
	 M211.618,422.36h-44.03v-15.939h44.03V422.36z M167.588,437.36h44.03v11.354h-44.03V437.36z M167.588,479.654v-15.939h44.03v15.939
	H167.588z M242.558,492.303h-15.939V380.825h15.939V492.303z M465.322,492.303h-15.939V380.825h15.939V492.303z M489.03,365.825
	H22.971c-4.396,0-7.971-3.575-7.971-7.97s3.575-7.97,7.971-7.97h466.06c4.395,0,7.97,3.575,7.97,7.97
	C497,362.25,493.425,365.825,489.03,365.825z"/>
<g>
</g>
<g>
</g>
<g>
</g>
<g>
</g>
<g>
</g>
<g>
</g>
<g>
</g>
<g>
</g>
<g>
</g>
<g>
</g>
<g>
</g>
<g>
</g>
<g>
</g>
<g>
</g>
<g>
</g>
</svg>
