<?xml version="1.0" encoding="iso-8859-1"?>
<!-- Generator: Adobe Illustrator 19.0.0, SVG Export Plug-In . SVG Version: 6.00 Build 0)  -->
<svg version="1.1" id="Layer_1" xmlns="http://www.w3.org/2000/svg" xmlns:xlink="http://www.w3.org/1999/xlink" x="0px" y="0px"
	 viewBox="0 0 512.001 512.001" style="enable-background:new 0 0 512.001 512.001;" xml:space="preserve">
<path style="fill:#CC9758;" d="M455.338,410.556c0,51.43-89.246,93.122-199.343,93.122c-45.041,0-86.607-6.985-119.984-18.765
	c-48.195-16.986-79.347-43.974-79.347-74.357c38.916-79.233,42.197-217.109,42.197-217.109H413.13
	C413.13,193.446,416.422,331.324,455.338,410.556z"/>
<path style="fill:#B78349;" d="M178.621,227.339c0,0-0.195,149.667-42.61,257.575c-48.195-16.987-79.347-43.975-79.347-74.358
	c38.916-79.233,42.197-217.109,42.197-217.109h68.497L178.621,227.339z"/>
<ellipse style="fill:#F2C386;" cx="255.999" cy="193.439" rx="157.132" ry="73.412"/>
<path style="fill:#82B236;" d="M398.538,8.324c-19.498,2.79-37.021,15.593-44.903,35.181c-7.882,19.588-4.108,40.959,8.026,56.475
	c19.498-2.79,37.021-15.593,44.903-35.181C414.444,45.212,410.672,23.838,398.538,8.324z"/>
<path d="M398.898,466.203c-36.528,18.528-88.614,29.154-142.903,29.154c-42.779,0-83.311-6.325-117.218-18.291
	c-45.102-15.897-72.464-39.967-73.745-64.695c13.228-27.598,23.749-64.509,31.282-109.753c0.755-4.534-2.309-8.821-6.843-9.576
	c-4.537-0.763-8.82,2.309-9.576,6.842c-7.437,44.666-17.767,80.667-30.702,107.003c-0.561,1.142-0.853,2.397-0.853,3.669
	c0,33.226,30.946,63.19,84.899,82.205c35.664,12.586,78.111,19.238,122.754,19.238c57.654,0,111.077-10.993,150.432-30.954
	c4.099-2.079,5.737-7.088,3.657-11.187C408.004,465.761,402.996,464.124,398.898,466.203z"/>
<path d="M335.802,151.572c-4.382-1.385-9.059,1.044-10.444,5.427c-1.385,4.383,1.044,9.059,5.427,10.444
	c22.108,6.987,36.392,17.193,36.392,25.999c0,7.802-11.336,16.869-29.582,23.662c-4.307,1.604-6.498,6.396-4.894,10.703
	c1.247,3.35,4.423,5.42,7.799,5.42c0.964,0,1.946-0.169,2.903-0.525c26.064-9.706,40.419-23.648,40.419-39.261
	C383.821,176.23,366.767,161.361,335.802,151.572z"/>
<path d="M313.772,223.896c-17.457,3.74-37.435,5.718-57.772,5.718c-68.88,0-111.175-21.067-111.175-36.172
	c0-15.105,42.295-36.172,111.175-36.172c18.867,0,37.569,1.715,54.088,4.961c4.509,0.884,8.884-2.052,9.771-6.562
	c0.887-4.509-2.052-8.884-6.561-9.77c-17.558-3.45-37.372-5.273-57.298-5.273c-61.964,0-127.819,18.51-127.819,52.816
	S194.038,246.258,256,246.258c21.49,0,42.673-2.105,61.259-6.087c4.494-0.963,7.357-5.386,6.395-9.881
	C322.691,225.796,318.262,222.935,313.772,223.896z"/>
<path d="M277.79,184.692c4.559,0.288,8.55-3.169,8.852-7.755c0.303-4.586-3.168-8.55-7.755-8.854
	c-7.401-0.488-15.1-0.737-22.886-0.737c-21.717,0-42.223,1.921-57.738,5.408c-12.732,2.862-29.658,8.12-29.658,20.688
	c0,4.596,3.725,8.322,8.322,8.322c4.045,0,7.414-2.884,8.165-6.706c4.579-3.982,29.301-11.067,70.908-11.067
	C263.421,183.99,270.751,184.227,277.79,184.692z"/>
<path d="M198.262,214.13c15.517,3.488,36.023,5.408,57.738,5.408c21.717,0,42.223-1.921,57.738-5.408
	c12.733-2.862,29.659-8.12,29.659-20.688c0-11.032-12.652-18.223-39.816-22.633c-4.539-0.736-8.811,2.345-9.548,6.882
	c-0.736,4.536,2.345,8.811,6.881,9.548c12.435,2.018,19.592,4.462,23.28,6.237c-8.422,4.021-31.875,9.418-68.193,9.418
	c-20.524,0-39.734-1.776-54.089-5.003c-4.483-1.01-8.936,1.81-9.944,6.295C190.96,208.67,193.778,213.122,198.262,214.13z"/>
<path d="M382.243,406.915c2.603,8.656,5.508,16.792,8.634,24.181c1.344,3.175,4.425,5.082,7.667,5.082
	c1.082,0,2.181-0.212,3.24-0.66c4.232-1.791,6.213-6.674,4.421-10.907c-2.893-6.837-5.592-14.404-8.022-22.487
	c-1.324-4.401-5.957-6.898-10.367-5.572C383.414,397.873,380.919,402.513,382.243,406.915z"/>
<path d="M381.629,283.333c-0.002-4.595-3.726-8.32-8.322-8.32h-0.001c-4.596,0.001-8.321,3.726-8.321,8.322
	c0,1.845,0.111,45.725,9.696,93.104c0.799,3.948,4.27,6.673,8.148,6.673c0.547,0,1.102-0.054,1.659-0.166
	c4.505-0.911,7.419-5.302,6.507-9.807C381.751,327.454,381.629,283.77,381.629,283.333z"/>
<path d="M341.187,461.41c0.725,0,1.461-0.095,2.196-0.295c4.434-1.209,7.048-5.784,5.839-10.218
	c-13.345-48.935-15.751-96.374-15.774-96.847c-0.22-4.59-4.119-8.131-8.71-7.914c-4.59,0.22-8.133,4.117-7.915,8.708
	c0.095,2.004,2.497,49.668,16.342,100.433C334.172,458.977,337.528,461.41,341.187,461.41z"/>
<path d="M263.198,447.644c4.597,0,8.322-3.726,8.322-8.322v-116.99c0-4.596-3.725-8.322-8.322-8.322s-8.322,3.726-8.322,8.322
	v116.99C254.876,443.918,258.602,447.644,263.198,447.644z"/>
<path d="M158.65,367.73c-4.026,25.866-8.879,47.667-14.426,64.798c-1.415,4.373,0.982,9.066,5.354,10.481
	c0.852,0.276,1.717,0.407,2.567,0.407c3.511,0,6.775-2.24,7.916-5.76c5.817-17.967,10.876-40.632,15.037-67.365
	c0.707-4.542-2.402-8.796-6.944-9.503C163.604,360.073,159.356,363.189,158.65,367.73z"/>
<path d="M171.164,345.402c4.175,0,7.775-3.136,8.258-7.382c1.659-14.598,2.355-24.124,2.383-24.523
	c0.332-4.584-3.116-8.568-7.698-8.9c-4.586-0.336-8.571,3.116-8.901,7.698c-0.007,0.094-0.703,9.615-2.321,23.844
	c-0.519,4.567,2.762,8.69,7.329,9.209C170.533,345.385,170.85,345.402,171.164,345.402z"/>
<path d="M462.808,406.887c-36.968-75.265-41.181-207.379-41.352-213.423c0-0.008,0-0.014,0-0.022c0-23.21-18.648-43.868-49.1-58.611
	c-3.388-2.11-5.631-4.748-6.79-7.996c-2.281-6.401-0.148-14.477,1.829-19.441c21.071-4.563,38.787-19.358,46.888-39.49
	c8.677-21.569,5.155-46.363-9.19-64.708c-1.835-2.347-4.789-3.536-7.734-3.111c-23.054,3.298-42.767,18.745-51.444,40.312
	c-8.027,19.95-5.609,42.654,6.149,60.468c-2.241,5.458-5.054,14.649-3.863,24.327c-26.189-8.543-57.813-13.478-92.204-13.478
	c-92.538,0-165.071,35.714-165.447,81.372c-0.002,0.054-0.011,0.108-0.012,0.162c-0.008,0.345-0.885,34.985-6.548,78.829
	c-0.588,4.558,2.63,8.732,7.188,9.32c0.362,0.047,0.721,0.07,1.077,0.07c4.121,0,7.701-3.06,8.243-7.257
	c2.248-17.408,3.755-33.408,4.76-46.496c25.781,28.248,82.88,47.456,150.74,47.456c67.808,0,124.871-19.177,150.679-47.39
	c3.494,45.977,13.301,128.287,40.29,184.593c-0.912,17.956-15.189,32.22-27.231,41.131c-3.694,2.734-4.472,7.946-1.738,11.64
	c1.632,2.206,4.147,3.372,6.695,3.372c1.72,0,3.455-0.531,4.944-1.633c22.257-16.472,34.019-35.949,34.019-56.327
	C463.66,409.284,463.37,408.029,462.808,406.887z M361.358,46.611c5.847-14.533,18.421-25.337,33.482-29.094
	c8.262,13.142,9.849,29.644,4.002,44.177c-5.848,14.531-18.422,25.336-33.484,29.094C357.097,77.644,355.511,61.142,361.358,46.611z
	 M363.589,237.809C334.99,251.169,296.781,258.526,256,258.526s-78.99-7.358-107.589-20.718
	c-26.198-12.239-41.223-28.409-41.223-44.365s15.025-32.128,41.223-44.365C177.011,135.717,215.22,128.36,256,128.36
	c40.78,0,78.99,7.358,107.589,20.717c26.198,12.239,41.223,28.409,41.223,44.365S389.787,225.57,363.589,237.809z"/>
<g>
</g>
<g>
</g>
<g>
</g>
<g>
</g>
<g>
</g>
<g>
</g>
<g>
</g>
<g>
</g>
<g>
</g>
<g>
</g>
<g>
</g>
<g>
</g>
<g>
</g>
<g>
</g>
<g>
</g>
</svg>
