<svg id="Capa_1" enable-background="new 0 0 512 512" height="512" viewBox="0 0 512 512" width="512" xmlns="http://www.w3.org/2000/svg"><g><g><g><path d="m256 432.375c-39.814 0-76.758-23.377-104.028-65.825-25.947-40.387-40.236-93.787-40.236-150.363s14.289-109.976 40.236-150.363c27.27-42.447 64.215-65.824 104.028-65.824s76.758 23.377 104.028 65.825c25.947 40.387 40.236 93.787 40.236 150.363s-14.289 109.976-40.236 150.363c-27.27 42.447-64.214 65.824-104.028 65.824z" fill="#97de3d"/></g></g><g><path d="m360.028 65.825c-27.27-42.448-64.214-65.825-104.028-65.825v432.375c39.814 0 76.758-23.377 104.028-65.825 25.947-40.387 40.236-93.787 40.236-150.363s-14.29-109.975-40.236-150.362z" fill="#59c36a"/></g><path d="m326.365 302.097-21.261-21.261-34.07 34.07v-59.488h-30.068v59.488l-34.07-34.07-21.261 21.261 55.331 55.331v154.572h30.068v-154.572z" fill="#b95d4f"/><g><path d="m305.104 280.836-34.07 34.07v-59.488h-15.034v256.582h15.034v-154.572l55.331-55.331z" fill="#a14f42"/></g></g></svg>