<svg id="Capa_1" enable-background="new 0 0 512 512" height="512" viewBox="0 0 512 512" width="512" xmlns="http://www.w3.org/2000/svg"><g><path d="m480.229 222.26-30-90c-1.26-3.78-3.96-6.9-7.52-8.68l-57.82-28.91-23.89-23.88v-55.79c0-8.28-6.72-15-15-15h-90c-4.06 0-7.95 1.65-10.78 4.57l-60 62c-5.69 5.88-5.62 15.25.17 21.04l25.61 25.6v53.79c0 5.68 3.21 10.88 8.29 13.42l51.71 25.85v44.52l-5.21 5.21-50.4 50.39c-2.81 2.82-4.39 6.63-4.39 10.61v60c0 8.28 6.72 15 15 15h45v10.46l-57.48 86.22c-6.623 9.924.477 23.32 12.48 23.32h90c3.98 0 7.79-1.58 10.61-4.39l27.49-27.5 86.64-28.88c6.13-2.04 10.26-7.77 10.26-14.23v-60c0-3.98-1.58-7.79-4.39-10.61l-52.36-52.35 22.93-45.86 24.36-12.18 31.17-15.58c6.67-3.34 9.88-11.08 7.52-18.16z" fill="#5ab267"/><path d="m176.609 216.39-30-30c-2.82-2.81-6.63-4.39-10.61-4.39h-30c-3.98 0-7.79 1.58-10.61 4.39l-25.6 25.61h-23.79c-8.28 0-15 6.72-15 15v60c0 3.98 1.58 7.79 4.39 10.61l25.61 25.6v23.79c0 8.28 6.72 15 15 15h90c11.175 0 18.379-11.771 13.42-21.71l-25.17-50.33 22.36-22.35c2.81-2.82 4.39-6.63 4.39-10.61v-30c0-3.98-1.58-7.79-4.39-10.61z" fill="#5ab267"/><g fill="#288c64"><path d="m30.999 256h150v1c0 3.98-1.58 7.79-4.39 10.61l-22.36 22.35 25.17 50.33c4.951 9.924-2.226 21.71-13.42 21.71h-90c-8.28 0-15-6.72-15-15v-23.79l-25.61-25.6c-2.81-2.82-4.39-6.63-4.39-10.61v-31z"/><path d="m450.999 377v60c0 6.46-4.13 12.19-10.26 14.23l-86.64 28.88-27.49 27.5c-2.82 2.81-6.63 4.39-10.61 4.39h-90c-11.989 0-19.111-13.385-12.48-23.32l57.48-86.22v-10.46h-45c-8.28 0-15-6.72-15-15v-60c0-3.98 1.58-7.79 4.39-10.61l50.4-50.39h175.75l-24.36 12.18-22.93 45.86 52.36 52.35c2.81 2.82 4.39 6.63 4.39 10.61z"/></g></g></svg>